<svg width="76" height="76" viewBox="0 0 76 76" fill="none" xmlns="http://www.w3.org/2000/svg">
<path d="M35.7 11.2998H40.1C40.6 11.2998 41 10.8998 41 10.3998C41 9.8998 40.6 9.4998 40.1 9.4998H35.7V11.2998ZM35.7 15.4998H40.2C40.8 15.4998 41.2 15.0998 41.2 14.4998C41.2 13.8998 40.8 13.4998 40.2 13.4998H35.7V15.4998ZM42.8 12.2998C43.4 12.8998 43.8 13.6998 43.8 14.5998C43.8 16.3998 42.4 17.7998 40.6 17.7998H33.3V7.2998H40.5C42.2 7.2998 43.6 8.6998 43.6 10.3998C43.5 11.0998 43.2 11.7998 42.8 12.2998ZM44.5 30.2998H41.8L41 28.4998H35.1L34.3 30.2998H31.6L36.8 19.7998H39.2L44.5 30.2998ZM38 22.4998L36.2 26.2998H39.8L38 22.4998ZM41.6 32.5998H44.6L39.3 39.3998V43.0998H36.8V39.3998L31.5 32.5998H34.5L38.1 37.3998L41.6 32.5998ZM55.5 32.5998V34.8998H48.5V36.6998H55.3V38.9998H48.5V40.9998H55.5V43.2998H46V32.5998H55.5ZM63.2 39.0998H61.3V43.0998H58.8V32.5998H65.2C67 32.5998 68.4 34.0998 68.4 35.8998C68.4 37.3998 67.4 38.5998 66.1 38.9998L69.2 43.0998H66.2L63.2 39.0998ZM65 34.7998H61.4V36.7998H65C65.6 36.7998 66 36.2998 66 35.7998C66 35.2998 65.5 34.7998 65 34.7998ZM32.6 43.0998H29.9L29.1 41.2998H23.2L22.4 43.0998H19.7L25 32.5998H27.4L32.6 43.0998ZM26.1 35.2998L24.3 39.0998H28L26.1 35.2998ZM10.2 36.5998H14.6C15.1 36.5998 15.5 36.1998 15.5 35.6998C15.5 35.1998 15.1 34.7998 14.6 34.7998H10.2V36.5998ZM10.2 40.7998H14.7C15.3 40.7998 15.7 40.3998 15.7 39.7998C15.7 39.1998 15.3 38.7998 14.7 38.7998H10.2V40.7998ZM17.3 37.5998C17.9 38.1998 18.3 38.9998 18.3 39.8998C18.3 41.6998 16.9 43.0998 15.1 43.0998H7.70001V32.5998H14.9C16.6 32.5998 18 33.9998 18 35.6998C18 36.3998 17.7 37.0998 17.3 37.5998ZM42.8 45.2998V47.5998H35.8V49.3998H42.6V51.6998H35.8V53.6998H42.8V55.9998H33.3V45.2998H42.8ZM41 61.5998C41 60.9998 40.6 60.5998 40 60.5998H35.7V62.5998H40C40.6 62.5998 41 62.1998 41 61.5998ZM33.2 68.8998V58.3998H40.2C42 58.3998 43.4 59.8998 43.4 61.6998C43.4 63.0998 42.6 64.1998 41.4 64.6998L44.6 68.8998H41.6L38.6 64.8998H35.7V68.8998H33.2Z" fill="#10384F"/>
<path d="M75.9 35.6C74.7 15.8 58.2 0 38 0C17.8 0 1.30001 15.8 0.100006 35.6C0.100006 36.4 0.200006 37.2 0.300006 38C1.10001 44.6 3.60001 50.7 7.40001 55.8C14.3 65.2 25.4 71.3 38 71.3C20.4 71.3 6.00001 57.6 4.80001 40.4C4.70001 39.6 4.70001 38.8 4.70001 38C4.70001 37.2 4.70001 36.4 4.80001 35.6C6.00001 18.4 20.4 4.7 38 4.7C50.6 4.7 61.7 10.8 68.6 20.2C72.4 25.3 74.9 31.4 75.7 38C75.8 38.8 75.9 39.6 75.9 40.3C75.9 39.5 76 38.7 76 37.9C76 37.2 76 36.4 75.9 35.6Z" fill="#89D329"/>
<path d="M0.1 40.4002C1.3 60.2002 17.8 76.0002 38 76.0002C58.2 76.0002 74.7 60.2002 75.9 40.4002C75.9 39.6002 75.8 38.8002 75.7 38.0002C74.9 31.4002 72.4 25.3002 68.6 20.2002C61.7 10.8002 50.6 4.7002 38 4.7002C55.6 4.7002 70 18.4002 71.2 35.6002C71.3 36.4002 71.3 37.2002 71.3 38.0002C71.3 38.8002 71.3 39.6002 71.2 40.4002C70 57.7002 55.6 71.3002 38 71.3002C25.4 71.3002 14.3 65.2002 7.4 55.8002C3.6 50.7002 1.1 44.6002 0.3 38.0002C0.2 37.2002 0.1 36.4002 0.1 35.7002C0.1 36.5002 0 37.3002 0 38.1002C0 38.8002 7.45058e-09 39.6002 0.1 40.4002Z" fill="#00BCFF"/>
</svg>
