<svg width="36" height="30" viewBox="0 0 36 30" fill="none" xmlns="http://www.w3.org/2000/svg">
<path d="M26.7423 0.194884C26.3211 0.303132 25.6815 0.535091 25.3227 0.720658C24.4803 1.13818 23.3416 2.29798 22.9828 3.08664L22.702 3.72066L21.922 3.61241C20.6117 3.45778 20.4245 3.38046 20.4245 3.00932C20.4245 2.45262 19.7381 1.46293 19.0985 1.09179C18.3186 0.658802 17.055 0.68973 16.3999 1.16911C15.7915 1.6021 15.2767 2.42169 15.2767 2.932C15.2767 3.3186 15.1987 3.38046 14.6995 3.45778C10.5501 4.15365 7.52379 5.54541 5.29308 7.72582C3.35875 9.64335 2.43839 11.7155 2.22 14.6537C2.142 15.798 2.0796 16.0763 1.84561 16.1382C1.70522 16.1846 1.33083 16.4939 1.01884 16.8341C0.0672806 17.8856 -0.275906 19.7722 0.238874 21.2722C0.800452 22.9269 1.78321 23.6382 3.56155 23.6382H4.6379L4.8095 24.6743C5.05909 26.1124 5.65187 27.1949 6.71263 28.2001C8.30376 29.7001 9.38012 29.9784 13.6856 29.9784C16.8834 29.9784 17.1486 29.932 17.1486 29.3289C17.1486 28.9423 16.8522 28.9114 13.0148 28.865L9.58292 28.8186L8.60015 28.2929C7.4458 27.6743 6.80622 26.9939 6.24464 25.8032C5.83906 24.9527 5.83906 24.9372 5.79226 20.3444C5.74546 15.3341 5.80786 14.6846 6.65023 12.9681C7.50819 11.2052 9.73891 9.55057 11.8136 9.11758C12.3284 9.00933 14.6839 8.94747 17.9286 8.94747H23.2012L23.6848 9.55057C24.106 10.0609 24.1684 10.2774 24.1684 11.066C24.1684 12.4578 24.4803 12.6124 26.0403 11.9629C27.3506 11.4217 27.959 11.4526 28.4426 12.0867C29.0978 12.9372 29.6281 14.2516 29.7841 15.4578C29.9713 16.9423 29.9869 23.298 29.7841 24.4733C29.5033 26.2362 28.427 27.6588 26.8203 28.4166C25.9935 28.8032 25.8375 28.8186 22.39 28.896C19.2857 28.9578 18.8022 29.0042 18.6618 29.2362C18.537 29.4217 18.5526 29.5609 18.693 29.731C18.9894 30.0867 24.7611 30.0867 26.1183 29.7465C28.6922 29.0815 30.5953 27.0094 30.8605 24.5815L30.9541 23.7155L32.2176 23.6382C33.2472 23.5609 33.606 23.4681 34.1208 23.1434C36.1019 21.8444 36.1331 17.7928 34.1832 16.4166L33.5592 15.9836L33.45 14.6073C33.3564 13.4166 33.2472 12.8289 32.826 11.3444C32.748 11.097 32.8884 10.9423 33.4656 10.5867C34.4952 9.93717 35.3375 8.8083 35.7275 7.52479C36.7415 4.21551 34.8383 0.906225 31.4689 0.133028C30.5485 -0.068003 27.6938 -0.0370751 26.7423 0.194884ZM32.358 1.55571C33.9492 2.39076 34.8227 3.73613 34.9007 5.49901C34.9943 7.10726 34.6356 8.01964 33.528 9.13304C32.358 10.2928 31.6717 10.4939 28.9106 10.4939C27.1946 10.4939 26.7267 10.5403 26.1183 10.8031C25.7127 10.9732 25.3539 11.1124 25.3227 11.1124C25.2915 11.1124 25.2603 10.7877 25.2603 10.4011C25.2603 9.79799 25.1667 9.58149 24.6987 9.05572C23.794 8.06603 23.4664 7.21551 23.4664 5.77737C23.4664 4.72582 23.5288 4.40108 23.9032 3.65881C24.4179 2.62272 25.3071 1.80313 26.4147 1.37014C27.101 1.10726 27.5066 1.06086 29.3942 1.10726C31.4065 1.13818 31.6405 1.18458 32.358 1.55571ZM18.8802 2.28252C19.8785 3.27221 19.2389 4.77221 17.8194 4.77221C16.8678 4.77221 16.3687 4.27736 16.3687 3.34953C16.3843 2.35984 16.899 1.84953 17.8974 1.83406C18.2718 1.83406 18.5526 1.95777 18.8802 2.28252ZM15.8851 4.98871C16.1815 5.28252 16.6182 5.60726 16.8522 5.71551C17.289 5.88561 17.3046 5.93201 17.3046 6.87531V7.865H15.1675C12.5624 7.865 11.3456 8.05056 9.8949 8.63819C7.321 9.70521 5.24628 12.3341 4.8563 15.0248L4.7471 15.8289H4.04513H3.34315L3.37435 14.5145C3.49915 10.4011 6.13545 7.27737 11.0649 5.43716C11.954 5.09695 14.4343 4.50932 15.1363 4.4784C15.2611 4.46293 15.6043 4.69489 15.8851 4.98871ZM21.922 4.71035C22.2184 4.78767 22.2652 4.94231 22.3432 5.9784C22.39 6.62788 22.4836 7.32376 22.546 7.50933L22.6396 7.865H20.5181H18.3966V6.89077C18.3966 5.93201 18.4122 5.90108 18.927 5.65365C19.2233 5.51448 19.6289 5.18974 19.8317 4.92685C20.1593 4.46293 20.2373 4.44747 20.8925 4.54025C21.2825 4.60211 21.7504 4.67943 21.922 4.71035ZM31.9993 12.3186C32.1552 12.7825 32.2956 13.7104 32.3112 14.4836L32.358 15.8289H31.6717H30.9853L30.7825 14.8392C30.6577 14.2825 30.3301 13.3392 30.0337 12.7207L29.4877 11.5918L30.3769 11.53C31.7341 11.4526 31.7185 11.4372 31.9993 12.3186ZM4.6691 19.7722V22.5557H3.59275C2.73478 22.5557 2.43839 22.4939 2.0952 22.2155C1.47123 21.7362 1.08124 20.7774 1.08124 19.7258C1.08124 18.6898 1.36203 17.9166 1.95481 17.3753C2.32919 17.0351 2.51639 16.9887 3.51475 16.9887H4.6691V19.7722ZM33.762 17.499C34.9163 18.6434 34.8695 21.164 33.6528 22.1691C33.2472 22.5093 33.0444 22.5557 32.0305 22.5557H30.8761V19.7722V16.9887H32.0617C33.2004 16.9887 33.2628 17.0042 33.762 17.499Z" fill="white"/>
<path d="M26.2899 4.04447C26.1339 4.15271 26.0247 4.38467 26.0715 4.55478C26.1183 4.83313 26.2899 4.84859 28.7234 4.89498C31.1101 4.92591 31.3441 4.91045 31.4845 4.64756C31.8277 4.029 31.5001 3.92076 28.973 3.87436C27.1322 3.84344 26.5239 3.87436 26.2899 4.04447Z" fill="white"/>
<path d="M26.2274 6.45824C26.1026 6.52009 26.0402 6.75205 26.0714 6.95308L26.1182 7.32422H29.5501H32.982L33.0288 6.95308C33.06 6.75205 32.9976 6.52009 32.8728 6.45824C32.7636 6.38092 31.266 6.31906 29.5501 6.31906C27.8342 6.31906 26.3366 6.38092 26.2274 6.45824Z" fill="white"/>
<path d="M10.441 13.7252C9.3802 14.0499 8.52223 14.7458 8.03865 15.7045C7.83586 16.1221 7.78906 16.787 7.78906 19.8025C7.78906 23.8231 7.88266 24.2561 8.88102 25.0757C9.94178 25.9726 9.84818 25.9571 17.8507 25.9571H25.2292L26.056 25.5241C26.7111 25.1994 27.0075 24.9056 27.4131 24.2561L27.9123 23.421V19.8953C27.9123 17.2819 27.8499 16.2303 27.7095 15.8592C27.3975 15.1324 26.7111 14.3901 25.978 14.0035C25.3696 13.6788 25.1356 13.6633 22.0781 13.6633C19.2078 13.6633 18.8022 13.6942 18.6618 13.9262C18.537 14.1118 18.5526 14.2509 18.693 14.421C18.8646 14.6375 19.3638 14.6685 21.9377 14.6685C24.73 14.6685 25.0264 14.6994 25.5568 14.9932C26.7267 15.6427 26.7423 15.72 26.7891 19.6942C26.8359 23.2046 26.8359 23.2664 26.4771 23.7922C26.2744 24.086 25.8688 24.4571 25.5724 24.6272C25.042 24.9365 24.7612 24.952 18.3187 24.9984C10.6282 25.0602 10.285 25.0293 9.4426 24.1015C8.75623 23.3437 8.67823 22.8953 8.75623 19.3076C8.80302 16.0448 8.92782 15.6582 10.0666 15.0241C10.6438 14.6994 10.8621 14.6685 13.67 14.6685C15.308 14.6685 16.7587 14.6221 16.8991 14.5757C17.1955 14.4674 17.2267 14.0344 16.9615 13.7716C16.7431 13.5551 11.1117 13.5241 10.441 13.7252Z" fill="white"/>
<path d="M12.0945 17.0048C11.1898 17.778 11.0494 18.8605 11.7202 19.8193C12.6093 21.0564 14.5748 20.9481 15.308 19.6028C16.1036 18.1182 15.1208 16.5254 13.3737 16.5254C12.7653 16.5254 12.5313 16.6182 12.0945 17.0048ZM14.0913 17.778C14.5748 18.1491 14.6372 18.8914 14.2317 19.3399C13.8417 19.7729 13.0305 19.711 12.6405 19.2162C12.2193 18.6749 12.2349 18.3038 12.7029 17.8399C13.1709 17.3759 13.5453 17.3605 14.0913 17.778Z" fill="white"/>
<path d="M21.2358 16.8348C20.3778 17.3606 20.0346 18.5667 20.487 19.4327C20.9862 20.3915 22.0158 20.8863 22.9829 20.6389C23.6069 20.4843 24.3089 19.8039 24.4961 19.1544C24.7457 18.3193 24.3557 17.2832 23.6381 16.8348C22.9673 16.4327 21.9066 16.4327 21.2358 16.8348ZM23.1545 17.8399C23.8721 18.5358 23.4509 19.6183 22.4526 19.6183C21.4386 19.6183 20.9862 18.3966 21.7662 17.7781C22.3122 17.3606 22.6865 17.376 23.1545 17.8399Z" fill="white"/>
<path d="M15.9166 21.9981C15.823 22.1064 15.7762 22.3074 15.823 22.4156C15.9478 22.7249 16.837 23.2816 17.4142 23.4053C18.5061 23.6218 20.1129 22.8022 19.8945 22.1218C19.7541 21.6888 19.3017 21.6888 18.7089 22.1064C18.1942 22.493 17.3206 22.4466 16.837 22.0136C16.5094 21.7198 16.1506 21.7198 15.9166 21.9981Z" fill="white"/>
</svg>
