<svg width="201" height="55" viewBox="0 0 201 55" fill="none" xmlns="http://www.w3.org/2000/svg">
<mask id="path-1-inside-1_1200_51551" fill="white">
<path d="M0 0.5H201V54.5H0V0.5Z"/>
</mask>
<path d="M200 0.5V54.5H202V0.5H200Z" fill="#89D329" mask="url(#path-1-inside-1_1200_51551)"/>
<mask id="path-3-inside-2_1200_51551" fill="white">
<path d="M24.187 11.2539C23.3321 11.5547 22.3346 12.5205 21.923 13.4705C21.6538 14.0721 21.5588 14.1671 21.2738 14.0721C21.0839 14.0088 20.4822 13.9296 19.9439 13.8821C16.9358 13.6288 14.8776 16.1461 15.5109 19.3126L15.6375 19.9459L15.0359 20.1359C14.1651 20.3892 13.1043 21.355 12.6769 22.2891C12.3127 23.0807 12.2969 23.2074 12.2969 27.4821C12.2969 31.4402 12.3285 31.931 12.5977 32.5643C12.9618 33.4034 13.8643 34.3059 14.6717 34.67L15.2575 34.9392L14.8459 35.6675C14.4976 36.2849 14.4342 36.5858 14.4342 37.6624C14.4342 39.0398 14.6084 39.5147 15.495 40.528C16.6666 41.8579 18.7723 42.3171 20.4031 41.5888L21.1314 41.2563L21.2422 41.6521C21.2897 41.8579 21.5113 42.3171 21.733 42.6496C23.1737 44.8186 26.7835 44.9611 28.3509 42.9187C29.1109 41.9213 29.2692 41.2721 29.3642 38.9606L29.4434 36.7916H30.9949H32.5623V37.9948C32.5623 39.2614 32.6732 39.6256 33.3223 40.3064C33.6706 40.6863 33.7023 40.7972 33.544 41.1455C33.1323 42.0479 33.4965 43.2354 34.3356 43.7578C35.1272 44.2645 36.378 44.1378 37.0271 43.4887C37.6445 42.8712 37.8187 41.7471 37.4071 40.9872C36.9796 40.2114 36.0296 39.7364 35.143 39.8789C34.5414 39.9739 34.3672 39.9264 34.0506 39.6256C33.7181 39.3089 33.6706 39.1348 33.6706 38.0265V36.7916H35.618H37.5812L38.5945 37.9315L39.6236 39.0873L39.4178 39.7047C38.9745 40.9872 39.8294 42.3012 41.2068 42.4596C42.2043 42.5704 42.9009 42.1904 43.3284 41.288C44.1042 39.6889 42.7901 37.979 40.9852 38.2957C40.4152 38.3906 40.3677 38.359 39.3861 37.2507C38.8161 36.6332 38.1353 36.0158 37.8504 35.905C37.4546 35.7308 36.3621 35.6833 33.354 35.6833H29.3959V34.9708C29.3959 34.3217 29.4275 34.2584 29.8392 34.1634C31.0424 33.9101 32.0399 33.2135 32.5148 32.2952C32.6573 32.026 32.8157 31.3452 32.8632 30.7753L32.9582 29.7462L35.048 29.6987L37.1379 29.6512L37.977 30.3953C38.4362 30.8069 38.8636 31.1869 38.9428 31.2344C39.0061 31.2977 38.9745 31.5827 38.8795 31.8677C38.4678 33.0551 39.5444 34.575 40.811 34.575C42.0776 34.575 43.0117 33.6726 43.0117 32.4218C43.0117 31.0444 41.7451 30.0628 40.4152 30.4269C39.7661 30.6011 39.7661 30.6011 38.9745 29.8412C38.547 29.4137 38.0245 28.9862 37.8345 28.8912C37.6287 28.7804 36.5679 28.7171 35.1905 28.7171H32.879V27.5296V26.3422H36.4571H40.0352L41.3652 25.0439L42.6951 23.7457L43.5659 23.7932C44.405 23.8248 44.4841 23.7932 45.0699 23.2074C45.6399 22.6532 45.7032 22.4949 45.7032 21.8141C45.7032 20.8483 45.3074 20.1517 44.5475 19.8034C43.8667 19.4709 43.4867 19.4709 42.7901 19.7559C41.7451 20.1992 41.2227 21.4183 41.6501 22.4474L41.8718 22.9857L40.811 24.1573L39.7344 25.3131H37.7712H35.808V24.1732C35.808 23.144 35.8555 23.0016 36.2513 22.5741C36.6471 22.1624 36.7738 22.1308 37.4546 22.1941C39.9244 22.4316 40.7794 19.3284 38.547 18.1727C37.9454 17.8719 37.3279 17.9035 36.7104 18.2677C35.7605 18.8535 35.2855 20.1359 35.7447 20.975C35.8713 21.2283 35.8238 21.3866 35.428 21.8458C34.858 22.4791 34.7947 22.7166 34.7472 24.2048L34.6997 25.3131H33.8289H32.9582L32.8632 24.4423C32.8157 23.9673 32.6573 23.3499 32.5148 23.0807C32.1824 22.4316 31.2958 21.6716 30.5991 21.4183L30.0292 21.2125V19.8192V18.426H31.5807C33.0531 18.426 33.1798 18.3943 33.7656 17.9669C34.0981 17.7135 34.8264 17.0486 35.3805 16.4944L36.378 15.4653L37.2329 15.5445C38.357 15.6395 39.0853 15.212 39.4494 14.2462C39.8927 13.0905 39.3703 11.903 38.2145 11.4756C37.597 11.2381 37.2171 11.2539 36.5679 11.5706C35.6972 11.9822 35.3805 12.6155 35.4597 13.7871L35.5388 14.7687L34.1456 16.1145L32.7682 17.476H31.4224H30.0767L29.9975 15.8295C29.9342 14.4521 29.855 14.0404 29.4909 13.2963C29.2534 12.8213 28.7942 12.2039 28.4776 11.9347C27.3693 11.0164 25.6436 10.7473 24.187 11.2539ZM26.5935 12.1089C27.3693 12.3147 28.2559 13.1063 28.6201 13.9138C28.8734 14.4679 28.9209 15.0062 28.9209 17.8877V21.2283L28.2876 21.4183C27.4643 21.6558 26.7835 22.2574 26.9102 22.6057C27.0843 23.0332 27.4485 23.0649 27.9868 22.7007C29.0634 21.925 30.5675 22.1783 31.3907 23.2707L31.8499 23.8565V27.6879V31.5194L31.3907 32.1052C30.5991 33.166 29.4117 33.4193 28.1926 32.8176C27.4168 32.4218 26.9735 32.501 27.0527 33.0235C27.0843 33.2451 27.3218 33.5143 27.686 33.7043L28.2876 34.0209V37.4407C28.2876 40.7972 28.2876 40.8605 27.876 41.668C27.211 42.9979 25.7386 43.6628 24.3137 43.2829C23.4112 43.0295 22.3663 42.0004 22.1288 41.1138C21.9546 40.4964 21.9705 40.3855 22.3821 39.7839C22.7146 39.2931 22.7621 39.0714 22.6354 38.8814C22.3346 38.4065 21.9863 38.4856 21.5747 39.1348C20.7514 40.433 19.6273 41.0188 18.2499 40.8447C15.5109 40.528 14.4501 36.9341 16.5716 35.1608C17.0308 34.765 17.5374 34.575 18.6773 34.3376C19.0573 34.2584 19.1206 34.1792 19.0731 33.8151C19.0098 33.2293 18.5507 33.1976 17.1891 33.6251C15.8592 34.0526 15.21 33.9734 14.4026 33.2609C13.3101 32.311 13.2468 31.9944 13.2468 27.4346C13.2468 23.4924 13.2627 23.3657 13.611 22.6849C14.0543 21.8616 14.9884 21.1492 15.8117 21.0067C16.3183 20.9275 16.4925 20.9908 16.9516 21.4025C17.6957 22.0516 18.5823 22.3366 18.8832 22.0358C19.2156 21.7033 19.0098 21.355 18.3132 21.0383C16.1916 20.0884 15.7642 17.3177 17.4741 15.7028C19.3898 13.8821 22.4138 14.9904 22.8729 17.666C23.0154 18.4577 23.4112 18.7743 23.7912 18.4102C24.1553 18.0302 23.8387 16.6053 23.1421 15.592C22.6513 14.8795 22.6196 14.7687 22.7621 14.2304C22.9837 13.4546 23.9337 12.4572 24.7253 12.1722C25.5011 11.903 25.8177 11.8872 26.5935 12.1089ZM38.262 12.7263C38.9111 13.3755 38.3728 14.6262 37.4387 14.6262C37.0271 14.6262 36.3621 13.9296 36.3621 13.5021C36.3621 12.5997 37.6129 12.0772 38.262 12.7263ZM38.452 19.3284C38.8161 19.7717 38.8953 20.1359 38.7211 20.5475C38.4678 21.0858 37.8504 21.3392 37.3121 21.1175C36.2038 20.6584 36.5046 19.0593 37.7079 19.0593C37.9929 19.0593 38.3095 19.1859 38.452 19.3284ZM44.4366 20.9908C44.6108 21.1808 44.7533 21.4975 44.7533 21.7033C44.7533 22.1624 44.0883 22.8591 43.6767 22.8591C43.1542 22.8591 42.5368 22.2574 42.5368 21.735C42.5368 20.7534 43.7717 20.2784 44.4366 20.9908ZM41.7451 31.7569C42.3784 32.4377 41.9193 33.5143 40.9852 33.5143C40.0036 33.5143 39.5286 32.5643 40.0986 31.7569C40.431 31.2819 41.3018 31.2819 41.7451 31.7569ZM42.2201 39.6414C42.3943 39.8156 42.5368 40.1322 42.5368 40.3539C42.5368 40.8447 41.8876 41.5413 41.4285 41.5413C40.9852 41.5413 40.3202 40.8605 40.3202 40.3855C40.3202 39.4831 41.571 38.9923 42.2201 39.6414ZM36.283 41.2246C36.8846 41.8896 36.4254 43.1245 35.5705 43.1245C35.0797 43.1245 34.4622 42.5071 34.4622 42.0004C34.4622 41.0505 35.6655 40.5439 36.283 41.2246Z"/>
</mask>
<path d="M24.187 11.2539C23.3321 11.5547 22.3346 12.5205 21.923 13.4705C21.6538 14.0721 21.5588 14.1671 21.2738 14.0721C21.0839 14.0088 20.4822 13.9296 19.9439 13.8821C16.9358 13.6288 14.8776 16.1461 15.5109 19.3126L15.6375 19.9459L15.0359 20.1359C14.1651 20.3892 13.1043 21.355 12.6769 22.2891C12.3127 23.0807 12.2969 23.2074 12.2969 27.4821C12.2969 31.4402 12.3285 31.931 12.5977 32.5643C12.9618 33.4034 13.8643 34.3059 14.6717 34.67L15.2575 34.9392L14.8459 35.6675C14.4976 36.2849 14.4342 36.5858 14.4342 37.6624C14.4342 39.0398 14.6084 39.5147 15.495 40.528C16.6666 41.8579 18.7723 42.3171 20.4031 41.5888L21.1314 41.2563L21.2422 41.6521C21.2897 41.8579 21.5113 42.3171 21.733 42.6496C23.1737 44.8186 26.7835 44.9611 28.3509 42.9187C29.1109 41.9213 29.2692 41.2721 29.3642 38.9606L29.4434 36.7916H30.9949H32.5623V37.9948C32.5623 39.2614 32.6732 39.6256 33.3223 40.3064C33.6706 40.6863 33.7023 40.7972 33.544 41.1455C33.1323 42.0479 33.4965 43.2354 34.3356 43.7578C35.1272 44.2645 36.378 44.1378 37.0271 43.4887C37.6445 42.8712 37.8187 41.7471 37.4071 40.9872C36.9796 40.2114 36.0296 39.7364 35.143 39.8789C34.5414 39.9739 34.3672 39.9264 34.0506 39.6256C33.7181 39.3089 33.6706 39.1348 33.6706 38.0265V36.7916H35.618H37.5812L38.5945 37.9315L39.6236 39.0873L39.4178 39.7047C38.9745 40.9872 39.8294 42.3012 41.2068 42.4596C42.2043 42.5704 42.9009 42.1904 43.3284 41.288C44.1042 39.6889 42.7901 37.979 40.9852 38.2957C40.4152 38.3906 40.3677 38.359 39.3861 37.2507C38.8161 36.6332 38.1353 36.0158 37.8504 35.905C37.4546 35.7308 36.3621 35.6833 33.354 35.6833H29.3959V34.9708C29.3959 34.3217 29.4275 34.2584 29.8392 34.1634C31.0424 33.9101 32.0399 33.2135 32.5148 32.2952C32.6573 32.026 32.8157 31.3452 32.8632 30.7753L32.9582 29.7462L35.048 29.6987L37.1379 29.6512L37.977 30.3953C38.4362 30.8069 38.8636 31.1869 38.9428 31.2344C39.0061 31.2977 38.9745 31.5827 38.8795 31.8677C38.4678 33.0551 39.5444 34.575 40.811 34.575C42.0776 34.575 43.0117 33.6726 43.0117 32.4218C43.0117 31.0444 41.7451 30.0628 40.4152 30.4269C39.7661 30.6011 39.7661 30.6011 38.9745 29.8412C38.547 29.4137 38.0245 28.9862 37.8345 28.8912C37.6287 28.7804 36.5679 28.7171 35.1905 28.7171H32.879V27.5296V26.3422H36.4571H40.0352L41.3652 25.0439L42.6951 23.7457L43.5659 23.7932C44.405 23.8248 44.4841 23.7932 45.0699 23.2074C45.6399 22.6532 45.7032 22.4949 45.7032 21.8141C45.7032 20.8483 45.3074 20.1517 44.5475 19.8034C43.8667 19.4709 43.4867 19.4709 42.7901 19.7559C41.7451 20.1992 41.2227 21.4183 41.6501 22.4474L41.8718 22.9857L40.811 24.1573L39.7344 25.3131H37.7712H35.808V24.1732C35.808 23.144 35.8555 23.0016 36.2513 22.5741C36.6471 22.1624 36.7738 22.1308 37.4546 22.1941C39.9244 22.4316 40.7794 19.3284 38.547 18.1727C37.9454 17.8719 37.3279 17.9035 36.7104 18.2677C35.7605 18.8535 35.2855 20.1359 35.7447 20.975C35.8713 21.2283 35.8238 21.3866 35.428 21.8458C34.858 22.4791 34.7947 22.7166 34.7472 24.2048L34.6997 25.3131H33.8289H32.9582L32.8632 24.4423C32.8157 23.9673 32.6573 23.3499 32.5148 23.0807C32.1824 22.4316 31.2958 21.6716 30.5991 21.4183L30.0292 21.2125V19.8192V18.426H31.5807C33.0531 18.426 33.1798 18.3943 33.7656 17.9669C34.0981 17.7135 34.8264 17.0486 35.3805 16.4944L36.378 15.4653L37.2329 15.5445C38.357 15.6395 39.0853 15.212 39.4494 14.2462C39.8927 13.0905 39.3703 11.903 38.2145 11.4756C37.597 11.2381 37.2171 11.2539 36.5679 11.5706C35.6972 11.9822 35.3805 12.6155 35.4597 13.7871L35.5388 14.7687L34.1456 16.1145L32.7682 17.476H31.4224H30.0767L29.9975 15.8295C29.9342 14.4521 29.855 14.0404 29.4909 13.2963C29.2534 12.8213 28.7942 12.2039 28.4776 11.9347C27.3693 11.0164 25.6436 10.7473 24.187 11.2539ZM26.5935 12.1089C27.3693 12.3147 28.2559 13.1063 28.6201 13.9138C28.8734 14.4679 28.9209 15.0062 28.9209 17.8877V21.2283L28.2876 21.4183C27.4643 21.6558 26.7835 22.2574 26.9102 22.6057C27.0843 23.0332 27.4485 23.0649 27.9868 22.7007C29.0634 21.925 30.5675 22.1783 31.3907 23.2707L31.8499 23.8565V27.6879V31.5194L31.3907 32.1052C30.5991 33.166 29.4117 33.4193 28.1926 32.8176C27.4168 32.4218 26.9735 32.501 27.0527 33.0235C27.0843 33.2451 27.3218 33.5143 27.686 33.7043L28.2876 34.0209V37.4407C28.2876 40.7972 28.2876 40.8605 27.876 41.668C27.211 42.9979 25.7386 43.6628 24.3137 43.2829C23.4112 43.0295 22.3663 42.0004 22.1288 41.1138C21.9546 40.4964 21.9705 40.3855 22.3821 39.7839C22.7146 39.2931 22.7621 39.0714 22.6354 38.8814C22.3346 38.4065 21.9863 38.4856 21.5747 39.1348C20.7514 40.433 19.6273 41.0188 18.2499 40.8447C15.5109 40.528 14.4501 36.9341 16.5716 35.1608C17.0308 34.765 17.5374 34.575 18.6773 34.3376C19.0573 34.2584 19.1206 34.1792 19.0731 33.8151C19.0098 33.2293 18.5507 33.1976 17.1891 33.6251C15.8592 34.0526 15.21 33.9734 14.4026 33.2609C13.3101 32.311 13.2468 31.9944 13.2468 27.4346C13.2468 23.4924 13.2627 23.3657 13.611 22.6849C14.0543 21.8616 14.9884 21.1492 15.8117 21.0067C16.3183 20.9275 16.4925 20.9908 16.9516 21.4025C17.6957 22.0516 18.5823 22.3366 18.8832 22.0358C19.2156 21.7033 19.0098 21.355 18.3132 21.0383C16.1916 20.0884 15.7642 17.3177 17.4741 15.7028C19.3898 13.8821 22.4138 14.9904 22.8729 17.666C23.0154 18.4577 23.4112 18.7743 23.7912 18.4102C24.1553 18.0302 23.8387 16.6053 23.1421 15.592C22.6513 14.8795 22.6196 14.7687 22.7621 14.2304C22.9837 13.4546 23.9337 12.4572 24.7253 12.1722C25.5011 11.903 25.8177 11.8872 26.5935 12.1089ZM38.262 12.7263C38.9111 13.3755 38.3728 14.6262 37.4387 14.6262C37.0271 14.6262 36.3621 13.9296 36.3621 13.5021C36.3621 12.5997 37.6129 12.0772 38.262 12.7263ZM38.452 19.3284C38.8161 19.7717 38.8953 20.1359 38.7211 20.5475C38.4678 21.0858 37.8504 21.3392 37.3121 21.1175C36.2038 20.6584 36.5046 19.0593 37.7079 19.0593C37.9929 19.0593 38.3095 19.1859 38.452 19.3284ZM44.4366 20.9908C44.6108 21.1808 44.7533 21.4975 44.7533 21.7033C44.7533 22.1624 44.0883 22.8591 43.6767 22.8591C43.1542 22.8591 42.5368 22.2574 42.5368 21.735C42.5368 20.7534 43.7717 20.2784 44.4366 20.9908ZM41.7451 31.7569C42.3784 32.4377 41.9193 33.5143 40.9852 33.5143C40.0036 33.5143 39.5286 32.5643 40.0986 31.7569C40.431 31.2819 41.3018 31.2819 41.7451 31.7569ZM42.2201 39.6414C42.3943 39.8156 42.5368 40.1322 42.5368 40.3539C42.5368 40.8447 41.8876 41.5413 41.4285 41.5413C40.9852 41.5413 40.3202 40.8605 40.3202 40.3855C40.3202 39.4831 41.571 38.9923 42.2201 39.6414ZM36.283 41.2246C36.8846 41.8896 36.4254 43.1245 35.5705 43.1245C35.0797 43.1245 34.4622 42.5071 34.4622 42.0004C34.4622 41.0505 35.6655 40.5439 36.283 41.2246Z" fill="#425F8B" stroke="url(#paint0_linear_1200_51551)" mask="url(#path-3-inside-2_1200_51551)"/>
<path d="M18.4714 24.1562C17.284 24.7737 17.1415 25.2012 17.0782 28.1777C17.0307 30.3942 17.0465 30.7425 17.284 30.9325C17.474 31.0908 17.6165 31.1067 17.8065 30.98C18.0123 30.8534 18.0914 30.5367 18.1231 29.6026L18.1706 28.3993H19.5797H20.9888L21.0363 29.6976C21.0838 30.98 21.0996 31.0117 21.4796 31.0117H21.8754L21.9229 28.3043C21.9545 25.7237 21.9387 25.5812 21.6062 25.0745C20.7829 23.8871 19.643 23.5546 18.4714 24.1562ZM20.2288 25.0745C20.6405 25.312 21.0046 26.0561 21.0046 26.7369V27.2911H19.5797H18.1548V26.6419C18.1548 25.2804 19.168 24.5046 20.2288 25.0745Z" fill="#002C4A"/>
<path d="M23.1578 24.1722C22.7303 24.4889 22.9045 24.9797 23.4586 25.0747L23.9336 25.1538V27.6079V30.0619L23.4586 30.141C23.0786 30.2044 22.9837 30.2994 22.9837 30.616C22.9837 30.996 23.0153 31.0118 24.3452 31.0593C25.406 31.091 25.7543 31.0435 25.9126 30.8535C26.1976 30.521 26.0076 30.1727 25.4852 30.1094L25.0419 30.0619L24.9944 27.5762L24.9469 25.0905L25.3743 25.043C25.976 24.9797 26.2451 24.4889 25.8493 24.1881C25.4535 23.9031 23.5536 23.8872 23.1578 24.1722Z" fill="#002C4A"/>
<circle cx="28.9997" cy="27.4987" r="25.5159" stroke="url(#paint1_linear_1200_51551)" stroke-width="1.22968"/>
<path d="M86.6895 19.2378V28.5352C86.3242 28.9756 85.7603 29.4536 84.9976 29.9692C84.2349 30.4741 83.252 30.9092 82.0488 31.2744C80.8457 31.6396 79.3901 31.8223 77.6821 31.8223C76.1675 31.8223 74.7871 31.5752 73.541 31.0811C72.2949 30.5762 71.2207 29.8403 70.3184 28.8735C69.4268 27.9067 68.7393 26.7251 68.2559 25.3286C67.7725 23.9214 67.5308 22.3154 67.5308 20.5107V19.0444C67.5308 17.2397 67.7617 15.6338 68.2236 14.2266C68.6963 12.8193 69.3677 11.6323 70.2378 10.6655C71.1079 9.69873 72.1445 8.96289 73.3477 8.45801C74.5508 7.95313 75.8882 7.70068 77.3599 7.70068C79.4009 7.70068 81.0767 8.03369 82.3872 8.69971C83.6978 9.35498 84.6968 10.2681 85.3843 11.439C86.0825 12.5991 86.5122 13.9312 86.6733 15.4351H81.9844C81.8662 14.6401 81.6406 13.9473 81.3076 13.3564C80.9746 12.7656 80.4966 12.3037 79.8735 11.9707C79.2612 11.6377 78.4663 11.4712 77.4888 11.4712C76.6831 11.4712 75.9634 11.6377 75.3296 11.9707C74.7065 12.293 74.1802 12.771 73.7505 13.4048C73.3208 14.0386 72.9932 14.8228 72.7676 15.7573C72.542 16.6919 72.4292 17.7769 72.4292 19.0122V20.5107C72.4292 21.7354 72.5474 22.8203 72.7837 23.7656C73.02 24.7002 73.3691 25.4897 73.8311 26.1343C74.3037 26.7681 74.8838 27.2461 75.5713 27.5684C76.2588 27.8906 77.0591 28.0518 77.9722 28.0518C78.7349 28.0518 79.3687 27.9873 79.8735 27.8584C80.3892 27.7295 80.8027 27.5737 81.1143 27.3911C81.4365 27.1978 81.6836 27.0151 81.8555 26.8433V22.686H77.4404V19.2378H86.6895ZM97.6962 31.8223C96.3427 31.8223 95.1289 31.6074 94.0546 31.1777C92.9804 30.7373 92.0673 30.1304 91.3154 29.3569C90.5742 28.5835 90.0048 27.6865 89.6074 26.666C89.2099 25.6348 89.0112 24.5391 89.0112 23.3789V22.7344C89.0112 21.4131 89.1992 20.2046 89.5751 19.1089C89.9511 18.0132 90.4882 17.0625 91.1865 16.2568C91.8955 15.4512 92.7548 14.8335 93.7646 14.4038C94.7744 13.9634 95.913 13.7432 97.1806 13.7432C98.416 13.7432 99.5117 13.9473 100.468 14.3555C101.424 14.7637 102.224 15.3438 102.869 16.0957C103.524 16.8477 104.018 17.75 104.351 18.8027C104.684 19.8447 104.851 21.0049 104.851 22.2832V24.2168H90.9931V21.123H100.29V20.7686C100.29 20.124 100.172 19.5493 99.936 19.0444C99.7104 18.5288 99.3667 18.1206 98.9047 17.8198C98.4428 17.519 97.852 17.3687 97.1323 17.3687C96.52 17.3687 95.9936 17.5029 95.5532 17.7715C95.1127 18.04 94.7529 18.416 94.4736 18.8994C94.205 19.3828 94.0009 19.9521 93.8613 20.6074C93.7324 21.252 93.6679 21.9609 93.6679 22.7344V23.3789C93.6679 24.0771 93.7646 24.7217 93.958 25.3125C94.1621 25.9033 94.4467 26.4136 94.812 26.8433C95.1879 27.2729 95.6391 27.606 96.1655 27.8423C96.7026 28.0786 97.3095 28.1968 97.9863 28.1968C98.8242 28.1968 99.603 28.0356 100.323 27.7134C101.053 27.3804 101.682 26.8809 102.208 26.2148L104.464 28.6641C104.099 29.1904 103.599 29.6953 102.965 30.1787C102.342 30.6621 101.59 31.0596 100.709 31.3711C99.8286 31.6719 98.8242 31.8223 97.6962 31.8223ZM111.41 17.7876V31.5H106.769V14.0654H111.12L111.41 17.7876ZM110.733 22.1704H109.476C109.476 20.8813 109.643 19.7212 109.976 18.6899C110.309 17.6479 110.776 16.7617 111.378 16.0312C111.979 15.29 112.694 14.7261 113.521 14.3394C114.359 13.9419 115.293 13.7432 116.325 13.7432C117.141 13.7432 117.888 13.8613 118.564 14.0977C119.241 14.334 119.821 14.71 120.305 15.2256C120.799 15.7412 121.175 16.4233 121.433 17.272C121.701 18.1206 121.835 19.1572 121.835 20.3818V31.5H117.163V20.3657C117.163 19.5923 117.055 18.9907 116.84 18.561C116.625 18.1313 116.308 17.8306 115.89 17.6587C115.481 17.4761 114.976 17.3848 114.375 17.3848C113.752 17.3848 113.209 17.5083 112.747 17.7554C112.296 18.0024 111.92 18.3462 111.62 18.7866C111.329 19.2163 111.109 19.7212 110.959 20.3013C110.808 20.8813 110.733 21.5044 110.733 22.1704ZM134.566 12.0513L128.185 31.5H123.045L131.763 8.03906H135.034L134.566 12.0513ZM139.868 31.5L133.471 12.0513L132.955 8.03906H136.258L145.024 31.5H139.868ZM139.577 22.7666V26.5532H127.186V22.7666H139.577ZM151.712 8.03906V31.5H146.894V8.03906H151.712Z" fill="#002C4A"/>
<path d="M70.1235 49.5H67.897L67.9116 48.3501H70.1235C70.8853 48.3501 71.52 48.1914 72.0278 47.874C72.5356 47.5518 72.9165 47.1025 73.1704 46.5264C73.4292 45.9453 73.5586 45.2666 73.5586 44.4902V43.8384C73.5586 43.228 73.4854 42.686 73.3389 42.2124C73.1924 41.7339 72.9775 41.3311 72.6943 41.0039C72.4111 40.6719 72.0645 40.4204 71.6543 40.2495C71.249 40.0786 70.7827 39.9932 70.2554 39.9932H67.853V38.8359H70.2554C70.9536 38.8359 71.5908 38.9531 72.167 39.1875C72.7432 39.417 73.2388 39.7515 73.6538 40.1909C74.0737 40.6255 74.396 41.1528 74.6206 41.7729C74.8452 42.3882 74.9575 43.0815 74.9575 43.853V44.4902C74.9575 45.2617 74.8452 45.9575 74.6206 46.5776C74.396 47.1929 74.0713 47.7178 73.6465 48.1523C73.2266 48.5869 72.7188 48.9214 72.123 49.1558C71.5322 49.3853 70.8657 49.5 70.1235 49.5ZM68.6514 38.8359V49.5H67.2378V38.8359H68.6514ZM76.2326 45.6255V45.457C76.2326 44.8857 76.3156 44.356 76.4816 43.8677C76.6476 43.3745 76.8869 42.9473 77.1994 42.5859C77.5119 42.2197 77.8903 41.9365 78.3346 41.7363C78.779 41.5312 79.277 41.4287 79.8288 41.4287C80.3854 41.4287 80.8859 41.5312 81.3302 41.7363C81.7795 41.9365 82.1603 42.2197 82.4728 42.5859C82.7902 42.9473 83.0319 43.3745 83.1979 43.8677C83.3639 44.356 83.4469 44.8857 83.4469 45.457V45.6255C83.4469 46.1968 83.3639 46.7266 83.1979 47.2148C83.0319 47.7031 82.7902 48.1304 82.4728 48.4966C82.1603 48.8579 81.7819 49.1411 81.3376 49.3462C80.8981 49.5464 80.4001 49.6465 79.8434 49.6465C79.2868 49.6465 78.7863 49.5464 78.342 49.3462C77.8976 49.1411 77.5168 48.8579 77.1994 48.4966C76.8869 48.1304 76.6476 47.7031 76.4816 47.2148C76.3156 46.7266 76.2326 46.1968 76.2326 45.6255ZM77.5876 45.457V45.6255C77.5876 46.021 77.6339 46.3945 77.7267 46.7461C77.8195 47.0928 77.9587 47.4004 78.1442 47.6689C78.3346 47.9375 78.5714 48.1499 78.8546 48.3062C79.1379 48.4575 79.4674 48.5332 79.8434 48.5332C80.2145 48.5332 80.5392 48.4575 80.8175 48.3062C81.1007 48.1499 81.3351 47.9375 81.5207 47.6689C81.7062 47.4004 81.8454 47.0928 81.9381 46.7461C82.0358 46.3945 82.0846 46.021 82.0846 45.6255V45.457C82.0846 45.0664 82.0358 44.6978 81.9381 44.3511C81.8454 43.9995 81.7038 43.6895 81.5133 43.4209C81.3278 43.1475 81.0934 42.9326 80.8102 42.7764C80.5319 42.6201 80.2047 42.542 79.8288 42.542C79.4577 42.542 79.1305 42.6201 78.8473 42.7764C78.569 42.9326 78.3346 43.1475 78.1442 43.4209C77.9587 43.6895 77.8195 43.9995 77.7267 44.3511C77.6339 44.6978 77.5876 45.0664 77.5876 45.457ZM88.0325 48.5332C88.3548 48.5332 88.6527 48.4673 88.9261 48.3354C89.1995 48.2036 89.4241 48.0229 89.5999 47.7935C89.7757 47.5591 89.8758 47.293 89.9002 46.9951H91.1893C91.1649 47.4639 91.0062 47.9009 90.7132 48.3062C90.4251 48.7065 90.0467 49.0312 89.5779 49.2803C89.1092 49.5244 88.5941 49.6465 88.0325 49.6465C87.4368 49.6465 86.9168 49.5415 86.4725 49.3315C86.033 49.1216 85.6668 48.8335 85.3738 48.4673C85.0858 48.1011 84.8685 47.6812 84.722 47.2075C84.5804 46.729 84.5096 46.2236 84.5096 45.6914V45.3838C84.5096 44.8516 84.5804 44.3486 84.722 43.875C84.8685 43.3965 85.0858 42.9741 85.3738 42.6079C85.6668 42.2417 86.033 41.9536 86.4725 41.7437C86.9168 41.5337 87.4368 41.4287 88.0325 41.4287C88.6527 41.4287 89.1946 41.5557 89.6585 41.8096C90.1224 42.0586 90.4862 42.4004 90.7498 42.835C91.0184 43.2646 91.1649 43.7529 91.1893 44.2998H89.9002C89.8758 43.9727 89.783 43.6772 89.6219 43.4136C89.4656 43.1499 89.2508 42.9399 88.9774 42.7837C88.7088 42.6226 88.3939 42.542 88.0325 42.542C87.6175 42.542 87.2684 42.625 86.9852 42.791C86.7069 42.9521 86.4847 43.1719 86.3187 43.4502C86.1575 43.7236 86.0404 44.0288 85.9671 44.3657C85.8988 44.6978 85.8646 45.0371 85.8646 45.3838V45.6914C85.8646 46.0381 85.8988 46.3799 85.9671 46.7168C86.0355 47.0537 86.1502 47.3589 86.3113 47.6323C86.4774 47.9058 86.6995 48.1255 86.9779 48.2915C87.2611 48.4526 87.6126 48.5332 88.0325 48.5332ZM97.2763 47.6689V41.5752H98.6387V49.5H97.3423L97.2763 47.6689ZM97.5327 45.999L98.0967 45.9844C98.0967 46.5117 98.0405 47 97.9282 47.4492C97.8208 47.8936 97.645 48.2793 97.4009 48.6064C97.1567 48.9336 96.8369 49.1899 96.4414 49.3755C96.0459 49.5562 95.5649 49.6465 94.9985 49.6465C94.6128 49.6465 94.2588 49.5903 93.9365 49.478C93.6191 49.3657 93.3457 49.1924 93.1162 48.958C92.8867 48.7236 92.7085 48.4185 92.5815 48.0425C92.4595 47.6665 92.3984 47.2148 92.3984 46.6875V41.5752H93.7534V46.7021C93.7534 47.0586 93.7925 47.354 93.8706 47.5884C93.9536 47.8179 94.0635 48.001 94.2002 48.1377C94.3418 48.2695 94.498 48.3623 94.6689 48.416C94.8447 48.4697 95.0254 48.4966 95.2109 48.4966C95.7871 48.4966 96.2436 48.3867 96.5805 48.167C96.9175 47.9424 97.1592 47.6421 97.3056 47.2661C97.457 46.8853 97.5327 46.4629 97.5327 45.999ZM101.767 43.1499V49.5H100.404V41.5752H101.693L101.767 43.1499ZM101.488 45.2373L100.859 45.2153C100.863 44.6733 100.934 44.1729 101.071 43.7139C101.208 43.25 101.41 42.8472 101.679 42.5054C101.947 42.1636 102.282 41.8999 102.682 41.7144C103.083 41.5239 103.547 41.4287 104.074 41.4287C104.445 41.4287 104.787 41.4824 105.099 41.5898C105.412 41.6924 105.683 41.856 105.912 42.0806C106.142 42.3052 106.32 42.5933 106.447 42.9448C106.574 43.2964 106.637 43.7212 106.637 44.2192V49.5H105.282V44.2852C105.282 43.8701 105.212 43.5381 105.07 43.2891C104.933 43.04 104.738 42.8594 104.484 42.7471C104.23 42.6299 103.932 42.5713 103.59 42.5713C103.19 42.5713 102.856 42.6421 102.587 42.7837C102.318 42.9253 102.104 43.1206 101.943 43.3696C101.781 43.6187 101.664 43.9043 101.591 44.2266C101.523 44.5439 101.488 44.8809 101.488 45.2373ZM106.623 44.4902L105.714 44.7686C105.719 44.334 105.79 43.9165 105.927 43.5161C106.068 43.1157 106.271 42.7593 106.535 42.4468C106.803 42.1343 107.133 41.8877 107.524 41.707C107.914 41.5215 108.361 41.4287 108.864 41.4287C109.289 41.4287 109.665 41.4849 109.992 41.5972C110.324 41.7095 110.602 41.8828 110.827 42.1172C111.056 42.3467 111.23 42.6421 111.347 43.0034C111.464 43.3647 111.523 43.7944 111.523 44.2925V49.5H110.16V44.2778C110.16 43.8335 110.089 43.4893 109.948 43.2451C109.811 42.9961 109.616 42.8228 109.362 42.7251C109.113 42.6226 108.815 42.5713 108.468 42.5713C108.171 42.5713 107.907 42.6226 107.677 42.7251C107.448 42.8276 107.255 42.9692 107.099 43.1499C106.943 43.3257 106.823 43.5283 106.74 43.7578C106.662 43.9873 106.623 44.2314 106.623 44.4902ZM116.577 49.6465C116.025 49.6465 115.525 49.5537 115.075 49.3682C114.631 49.1777 114.248 48.9116 113.926 48.5698C113.608 48.228 113.364 47.8228 113.193 47.354C113.022 46.8853 112.937 46.3726 112.937 45.8159V45.5083C112.937 44.8638 113.032 44.29 113.222 43.7871C113.413 43.2793 113.672 42.8496 113.999 42.498C114.326 42.1465 114.697 41.8804 115.112 41.6997C115.527 41.519 115.957 41.4287 116.401 41.4287C116.968 41.4287 117.456 41.5264 117.866 41.7217C118.281 41.917 118.62 42.1904 118.884 42.542C119.148 42.8887 119.343 43.2988 119.47 43.7725C119.597 44.2412 119.66 44.7539 119.66 45.3105V45.9185H113.742V44.8125H118.305V44.71C118.286 44.3584 118.213 44.0166 118.086 43.6846C117.964 43.3525 117.768 43.0791 117.5 42.8643C117.231 42.6494 116.865 42.542 116.401 42.542C116.094 42.542 115.81 42.6079 115.552 42.7397C115.293 42.8667 115.071 43.0571 114.885 43.311C114.7 43.5649 114.555 43.875 114.453 44.2412C114.35 44.6074 114.299 45.0298 114.299 45.5083V45.8159C114.299 46.1919 114.35 46.5459 114.453 46.8779C114.56 47.2051 114.714 47.4932 114.914 47.7422C115.119 47.9912 115.366 48.1865 115.654 48.3281C115.947 48.4697 116.279 48.5405 116.65 48.5405C117.129 48.5405 117.534 48.4429 117.866 48.2476C118.198 48.0522 118.489 47.791 118.738 47.4639L119.558 48.1157C119.387 48.3745 119.17 48.6211 118.906 48.8555C118.642 49.0898 118.318 49.2803 117.932 49.4268C117.551 49.5732 117.099 49.6465 116.577 49.6465ZM122.312 43.2671V49.5H120.957V41.5752H122.239L122.312 43.2671ZM121.99 45.2373L121.426 45.2153C121.431 44.6733 121.512 44.1729 121.668 43.7139C121.824 43.25 122.044 42.8472 122.327 42.5054C122.61 42.1636 122.947 41.8999 123.338 41.7144C123.733 41.5239 124.17 41.4287 124.649 41.4287C125.04 41.4287 125.391 41.4824 125.704 41.5898C126.016 41.6924 126.282 41.8584 126.502 42.0879C126.727 42.3174 126.897 42.6152 127.015 42.9814C127.132 43.3428 127.19 43.7847 127.19 44.3071V49.5H125.828V44.2925C125.828 43.8774 125.767 43.5454 125.645 43.2964C125.523 43.0425 125.345 42.8594 125.11 42.7471C124.876 42.6299 124.588 42.5713 124.246 42.5713C123.909 42.5713 123.602 42.6421 123.323 42.7837C123.05 42.9253 122.813 43.1206 122.613 43.3696C122.417 43.6187 122.264 43.9043 122.151 44.2266C122.044 44.5439 121.99 44.8809 121.99 45.2373ZM132.281 41.5752V42.6152H127.997V41.5752H132.281ZM129.447 39.6489H130.802V47.5371C130.802 47.8057 130.843 48.0083 130.926 48.145C131.009 48.2817 131.117 48.3721 131.249 48.416C131.38 48.46 131.522 48.4819 131.673 48.4819C131.786 48.4819 131.903 48.4722 132.025 48.4526C132.152 48.4282 132.247 48.4087 132.311 48.394L132.318 49.5C132.211 49.5342 132.069 49.5659 131.893 49.5952C131.722 49.6294 131.515 49.6465 131.271 49.6465C130.939 49.6465 130.633 49.5806 130.355 49.4487C130.077 49.3169 129.855 49.0972 129.689 48.7896C129.527 48.4771 129.447 48.0571 129.447 47.5298V39.6489ZM138.376 43.0986V52.5469H137.014V41.5752H138.259L138.376 43.0986ZM143.716 45.4717V45.6255C143.716 46.2017 143.647 46.7363 143.511 47.2295C143.374 47.7178 143.174 48.1426 142.91 48.5039C142.651 48.8652 142.331 49.146 141.951 49.3462C141.57 49.5464 141.133 49.6465 140.64 49.6465C140.137 49.6465 139.692 49.5635 139.307 49.3975C138.921 49.2314 138.594 48.9897 138.325 48.6724C138.057 48.355 137.842 47.9741 137.681 47.5298C137.524 47.0854 137.417 46.585 137.358 46.0283V45.208C137.417 44.6221 137.527 44.0972 137.688 43.6333C137.849 43.1694 138.061 42.7739 138.325 42.4468C138.594 42.1147 138.918 41.8633 139.299 41.6924C139.68 41.5166 140.12 41.4287 140.618 41.4287C141.116 41.4287 141.558 41.5264 141.943 41.7217C142.329 41.9121 142.654 42.1855 142.917 42.542C143.181 42.8984 143.379 43.3257 143.511 43.8237C143.647 44.3169 143.716 44.8662 143.716 45.4717ZM142.353 45.6255V45.4717C142.353 45.0762 142.312 44.7051 142.229 44.3584C142.146 44.0068 142.017 43.6992 141.841 43.4355C141.67 43.167 141.45 42.957 141.182 42.8057C140.913 42.6494 140.593 42.5713 140.222 42.5713C139.88 42.5713 139.582 42.6299 139.329 42.7471C139.08 42.8643 138.867 43.0229 138.691 43.2231C138.516 43.4185 138.372 43.6431 138.259 43.897C138.152 44.146 138.071 44.4048 138.018 44.6733V46.5703C138.115 46.9121 138.252 47.2344 138.428 47.5371C138.603 47.835 138.838 48.0767 139.131 48.2622C139.424 48.4429 139.792 48.5332 140.237 48.5332C140.603 48.5332 140.918 48.4575 141.182 48.3062C141.45 48.1499 141.67 47.9375 141.841 47.6689C142.017 47.4004 142.146 47.0928 142.229 46.7461C142.312 46.3945 142.353 46.021 142.353 45.6255ZM146.514 42.8203V49.5H145.159V41.5752H146.478L146.514 42.8203ZM148.99 41.5312L148.983 42.791C148.87 42.7666 148.763 42.752 148.66 42.7471C148.563 42.7373 148.45 42.7324 148.323 42.7324C148.011 42.7324 147.735 42.7812 147.496 42.8789C147.256 42.9766 147.054 43.1133 146.888 43.2891C146.722 43.4648 146.59 43.6748 146.492 43.9189C146.4 44.1582 146.338 44.4219 146.309 44.71L145.928 44.9297C145.928 44.4512 145.975 44.002 146.067 43.582C146.165 43.1621 146.314 42.791 146.514 42.4688C146.714 42.1416 146.968 41.8877 147.276 41.707C147.588 41.5215 147.96 41.4287 148.389 41.4287C148.487 41.4287 148.599 41.4409 148.726 41.4653C148.853 41.4849 148.941 41.5068 148.99 41.5312ZM149.452 45.6255V45.457C149.452 44.8857 149.535 44.356 149.701 43.8677C149.867 43.3745 150.106 42.9473 150.419 42.5859C150.731 42.2197 151.11 41.9365 151.554 41.7363C151.998 41.5312 152.496 41.4287 153.048 41.4287C153.605 41.4287 154.105 41.5312 154.55 41.7363C154.999 41.9365 155.38 42.2197 155.692 42.5859C156.01 42.9473 156.251 43.3745 156.417 43.8677C156.583 44.356 156.666 44.8857 156.666 45.457V45.6255C156.666 46.1968 156.583 46.7266 156.417 47.2148C156.251 47.7031 156.01 48.1304 155.692 48.4966C155.38 48.8579 155.001 49.1411 154.557 49.3462C154.117 49.5464 153.619 49.6465 153.063 49.6465C152.506 49.6465 152.006 49.5464 151.561 49.3462C151.117 49.1411 150.736 48.8579 150.419 48.4966C150.106 48.1304 149.867 47.7031 149.701 47.2148C149.535 46.7266 149.452 46.1968 149.452 45.6255ZM150.807 45.457V45.6255C150.807 46.021 150.853 46.3945 150.946 46.7461C151.039 47.0928 151.178 47.4004 151.364 47.6689C151.554 47.9375 151.791 48.1499 152.074 48.3062C152.357 48.4575 152.687 48.5332 153.063 48.5332C153.434 48.5332 153.759 48.4575 154.037 48.3062C154.32 48.1499 154.554 47.9375 154.74 47.6689C154.926 47.4004 155.065 47.0928 155.157 46.7461C155.255 46.3945 155.304 46.021 155.304 45.6255V45.457C155.304 45.0664 155.255 44.6978 155.157 44.3511C155.065 43.9995 154.923 43.6895 154.733 43.4209C154.547 43.1475 154.313 42.9326 154.03 42.7764C153.751 42.6201 153.424 42.542 153.048 42.542C152.677 42.542 152.35 42.6201 152.067 42.7764C151.788 42.9326 151.554 43.1475 151.364 43.4209C151.178 43.6895 151.039 43.9995 150.946 44.3511C150.853 44.6978 150.807 45.0664 150.807 45.457ZM161.252 48.5332C161.574 48.5332 161.872 48.4673 162.145 48.3354C162.419 48.2036 162.643 48.0229 162.819 47.7935C162.995 47.5591 163.095 47.293 163.12 46.9951H164.409C164.384 47.4639 164.226 47.9009 163.933 48.3062C163.644 48.7065 163.266 49.0312 162.797 49.2803C162.329 49.5244 161.813 49.6465 161.252 49.6465C160.656 49.6465 160.136 49.5415 159.692 49.3315C159.252 49.1216 158.886 48.8335 158.593 48.4673C158.305 48.1011 158.088 47.6812 157.941 47.2075C157.8 46.729 157.729 46.2236 157.729 45.6914V45.3838C157.729 44.8516 157.8 44.3486 157.941 43.875C158.088 43.3965 158.305 42.9741 158.593 42.6079C158.886 42.2417 159.252 41.9536 159.692 41.7437C160.136 41.5337 160.656 41.4287 161.252 41.4287C161.872 41.4287 162.414 41.5557 162.878 41.8096C163.342 42.0586 163.705 42.4004 163.969 42.835C164.238 43.2646 164.384 43.7529 164.409 44.2998H163.12C163.095 43.9727 163.002 43.6772 162.841 43.4136C162.685 43.1499 162.47 42.9399 162.197 42.7837C161.928 42.6226 161.613 42.542 161.252 42.542C160.837 42.542 160.488 42.625 160.205 42.791C159.926 42.9521 159.704 43.1719 159.538 43.4502C159.377 43.7236 159.26 44.0288 159.186 44.3657C159.118 44.6978 159.084 45.0371 159.084 45.3838V45.6914C159.084 46.0381 159.118 46.3799 159.186 46.7168C159.255 47.0537 159.37 47.3589 159.531 47.6323C159.697 47.9058 159.919 48.1255 160.197 48.2915C160.48 48.4526 160.832 48.5332 161.252 48.5332ZM168.936 49.6465C168.384 49.6465 167.883 49.5537 167.434 49.3682C166.99 49.1777 166.607 48.9116 166.284 48.5698C165.967 48.228 165.723 47.8228 165.552 47.354C165.381 46.8853 165.295 46.3726 165.295 45.8159V45.5083C165.295 44.8638 165.391 44.29 165.581 43.7871C165.772 43.2793 166.03 42.8496 166.357 42.498C166.685 42.1465 167.056 41.8804 167.471 41.6997C167.886 41.519 168.316 41.4287 168.76 41.4287C169.326 41.4287 169.815 41.5264 170.225 41.7217C170.64 41.917 170.979 42.1904 171.243 42.542C171.506 42.8887 171.702 43.2988 171.829 43.7725C171.956 44.2412 172.019 44.7539 172.019 45.3105V45.9185H166.101V44.8125H170.664V44.71C170.645 44.3584 170.571 44.0166 170.444 43.6846C170.322 43.3525 170.127 43.0791 169.858 42.8643C169.59 42.6494 169.224 42.542 168.76 42.542C168.452 42.542 168.169 42.6079 167.91 42.7397C167.651 42.8667 167.429 43.0571 167.244 43.311C167.058 43.5649 166.914 43.875 166.812 44.2412C166.709 44.6074 166.658 45.0298 166.658 45.5083V45.8159C166.658 46.1919 166.709 46.5459 166.812 46.8779C166.919 47.2051 167.073 47.4932 167.273 47.7422C167.478 47.9912 167.725 48.1865 168.013 48.3281C168.306 48.4697 168.638 48.5405 169.009 48.5405C169.487 48.5405 169.893 48.4429 170.225 48.2476C170.557 48.0522 170.847 47.791 171.096 47.4639L171.917 48.1157C171.746 48.3745 171.528 48.6211 171.265 48.8555C171.001 49.0898 170.676 49.2803 170.291 49.4268C169.91 49.5732 169.458 49.6465 168.936 49.6465ZM177.93 47.3979C177.93 47.2026 177.886 47.022 177.799 46.856C177.716 46.6851 177.542 46.5312 177.279 46.3945C177.02 46.2529 176.629 46.1309 176.107 46.0283C175.667 45.9355 175.269 45.8257 174.913 45.6987C174.561 45.5718 174.261 45.418 174.012 45.2373C173.768 45.0566 173.58 44.8442 173.448 44.6001C173.316 44.356 173.25 44.0703 173.25 43.7432C173.25 43.4307 173.319 43.1353 173.455 42.8569C173.597 42.5786 173.795 42.332 174.049 42.1172C174.307 41.9023 174.617 41.7339 174.979 41.6118C175.34 41.4897 175.743 41.4287 176.187 41.4287C176.822 41.4287 177.364 41.541 177.813 41.7656C178.262 41.9902 178.607 42.2905 178.846 42.6665C179.085 43.0376 179.205 43.4502 179.205 43.9043H177.85C177.85 43.6846 177.784 43.4722 177.652 43.2671C177.525 43.0571 177.337 42.8838 177.088 42.7471C176.844 42.6104 176.544 42.542 176.187 42.542C175.811 42.542 175.506 42.6006 175.272 42.7178C175.042 42.8301 174.874 42.9741 174.766 43.1499C174.664 43.3257 174.613 43.5112 174.613 43.7065C174.613 43.853 174.637 43.9849 174.686 44.1021C174.739 44.2144 174.832 44.3193 174.964 44.417C175.096 44.5098 175.281 44.5977 175.521 44.6807C175.76 44.7637 176.065 44.8467 176.436 44.9297C177.086 45.0762 177.62 45.252 178.04 45.457C178.46 45.6621 178.773 45.9136 178.978 46.2114C179.183 46.5093 179.285 46.8706 179.285 47.2954C179.285 47.6421 179.212 47.9595 179.066 48.2476C178.924 48.5356 178.717 48.7847 178.443 48.9946C178.175 49.1997 177.852 49.3608 177.476 49.478C177.105 49.5903 176.688 49.6465 176.224 49.6465C175.526 49.6465 174.935 49.522 174.451 49.2729C173.968 49.0239 173.602 48.7017 173.353 48.3062C173.104 47.9106 172.979 47.4932 172.979 47.0537H174.342C174.361 47.4248 174.468 47.7202 174.664 47.9399C174.859 48.1548 175.098 48.3086 175.382 48.4014C175.665 48.4893 175.946 48.5332 176.224 48.5332C176.595 48.5332 176.905 48.4844 177.154 48.3867C177.408 48.2891 177.601 48.1548 177.733 47.9839C177.864 47.813 177.93 47.6177 177.93 47.3979ZM185.394 47.3979C185.394 47.2026 185.35 47.022 185.263 46.856C185.18 46.6851 185.006 46.5312 184.743 46.3945C184.484 46.2529 184.093 46.1309 183.571 46.0283C183.131 45.9355 182.733 45.8257 182.377 45.6987C182.025 45.5718 181.725 45.418 181.476 45.2373C181.232 45.0566 181.044 44.8442 180.912 44.6001C180.78 44.356 180.714 44.0703 180.714 43.7432C180.714 43.4307 180.783 43.1353 180.919 42.8569C181.061 42.5786 181.259 42.332 181.513 42.1172C181.771 41.9023 182.081 41.7339 182.443 41.6118C182.804 41.4897 183.207 41.4287 183.651 41.4287C184.286 41.4287 184.828 41.541 185.277 41.7656C185.726 41.9902 186.071 42.2905 186.31 42.6665C186.549 43.0376 186.669 43.4502 186.669 43.9043H185.314C185.314 43.6846 185.248 43.4722 185.116 43.2671C184.989 43.0571 184.801 42.8838 184.552 42.7471C184.308 42.6104 184.008 42.542 183.651 42.542C183.275 42.542 182.97 42.6006 182.736 42.7178C182.506 42.8301 182.338 42.9741 182.23 43.1499C182.128 43.3257 182.077 43.5112 182.077 43.7065C182.077 43.853 182.101 43.9849 182.15 44.1021C182.204 44.2144 182.296 44.3193 182.428 44.417C182.56 44.5098 182.746 44.5977 182.985 44.6807C183.224 44.7637 183.529 44.8467 183.9 44.9297C184.55 45.0762 185.084 45.252 185.504 45.457C185.924 45.6621 186.237 45.9136 186.442 46.2114C186.647 46.5093 186.749 46.8706 186.749 47.2954C186.749 47.6421 186.676 47.9595 186.53 48.2476C186.388 48.5356 186.181 48.7847 185.907 48.9946C185.639 49.1997 185.316 49.3608 184.94 49.478C184.569 49.5903 184.152 49.6465 183.688 49.6465C182.99 49.6465 182.399 49.522 181.915 49.2729C181.432 49.0239 181.066 48.7017 180.817 48.3062C180.568 47.9106 180.443 47.4932 180.443 47.0537H181.806C181.825 47.4248 181.933 47.7202 182.128 47.9399C182.323 48.1548 182.562 48.3086 182.846 48.4014C183.129 48.4893 183.41 48.5332 183.688 48.5332C184.059 48.5332 184.369 48.4844 184.618 48.3867C184.872 48.2891 185.065 48.1548 185.197 47.9839C185.329 47.813 185.394 47.6177 185.394 47.3979Z" fill="#425F8B"/>
<defs>
<linearGradient id="paint0_linear_1200_51551" x1="29.0001" y1="44.3672" x2="29.0001" y2="11.0012" gradientUnits="userSpaceOnUse">
<stop stop-color="#56D500"/>
<stop offset="1" stop-color="#01BEFF"/>
</linearGradient>
<linearGradient id="paint1_linear_1200_51551" x1="28.9997" y1="2.59766" x2="28.9997" y2="52.3998" gradientUnits="userSpaceOnUse">
<stop stop-color="#56D500"/>
<stop offset="1" stop-color="#01BEFF"/>
</linearGradient>
</defs>
</svg>
