<svg width="20" height="20" viewBox="0 0 20 20" fill="none" xmlns="http://www.w3.org/2000/svg">
<path d="M18.3333 9.99984C18.3333 14.6022 14.6024 18.3332 9.99999 18.3332M18.3333 9.99984C18.3333 5.39746 14.6024 1.6665 9.99999 1.6665M18.3333 9.99984H1.66666M9.99999 18.3332C5.39762 18.3332 1.66666 14.6022 1.66666 9.99984M9.99999 18.3332C12.0844 16.0512 13.269 13.0898 13.3333 9.99984C13.269 6.90987 12.0844 3.94846 9.99999 1.6665M9.99999 18.3332C7.91559 16.0512 6.73103 13.0898 6.66666 9.99984C6.73103 6.90987 7.91559 3.94846 9.99999 1.6665M1.66666 9.99984C1.66666 5.39746 5.39762 1.6665 9.99999 1.6665" stroke="white" stroke-linecap="round" stroke-linejoin="round"/>
</svg>
