<svg width="265" height="56" viewBox="0 0 265 60" fill="none" xmlns="http://www.w3.org/2000/svg">
<path d="M0 0H219.275L265 60H0V0Z" fill="#002C4A"/>
<g clip-path="url(#clip0_1200_36598)">
<mask id="path-2-inside-1_1200_36598" fill="white">
<path d="M38.4552 20.1542C37.954 20.3305 37.3693 20.8967 37.128 21.4535C36.9702 21.8062 36.9146 21.8619 36.7475 21.8062C36.6361 21.7691 36.2834 21.7227 35.9679 21.6949C34.2045 21.5464 32.998 23.022 33.3692 24.8783L33.4434 25.2495L33.0908 25.3609C32.5803 25.5094 31.9585 26.0755 31.7079 26.6231C31.4944 27.0872 31.4851 27.1614 31.4851 29.6673C31.4851 31.9876 31.5037 32.2753 31.6615 32.6465C31.8749 33.1384 32.404 33.6674 32.8773 33.8809L33.2207 34.0387L32.9794 34.4656C32.7752 34.8276 32.7381 35.0039 32.7381 35.635C32.7381 36.4425 32.8402 36.7209 33.3599 37.3149C34.0467 38.0945 35.2811 38.3636 36.237 37.9367L36.664 37.7418L36.7289 37.9738C36.7568 38.0945 36.8867 38.3636 37.0167 38.5585C37.8612 39.8301 39.9773 39.9136 40.8961 38.7163C41.3416 38.1316 41.4344 37.7511 41.4901 36.3961L41.5365 35.1246H42.4461H43.3649V35.8299C43.3649 36.5724 43.4299 36.7859 43.8104 37.1849C44.0146 37.4077 44.0331 37.4727 43.9403 37.6768C43.699 38.2059 43.9125 38.9019 44.4044 39.2082C44.8684 39.5052 45.6016 39.431 45.9822 39.0504C46.3441 38.6885 46.4462 38.0295 46.2049 37.584C45.9543 37.1293 45.3974 36.8508 44.8777 36.9344C44.525 36.99 44.4229 36.9622 44.2373 36.7859C44.0424 36.6002 44.0146 36.4981 44.0146 35.8485V35.1246H45.1561H46.307L46.901 35.7928L47.5042 36.4703L47.3836 36.8323C47.1237 37.584 47.6249 38.3544 48.4324 38.4472C49.0171 38.5121 49.4254 38.2894 49.676 37.7604C50.1308 36.823 49.3605 35.8206 48.3024 36.0063C47.9683 36.0619 47.9405 36.0434 47.365 35.3937C47.0309 35.0317 46.6318 34.6698 46.4648 34.6048C46.2327 34.5027 45.5924 34.4749 43.8289 34.4749H41.5087V34.0572C41.5087 33.6767 41.5272 33.6396 41.7686 33.5839C42.4739 33.4354 43.0586 33.027 43.3371 32.4887C43.4206 32.331 43.5134 31.9319 43.5412 31.5977L43.5969 30.9945L44.822 30.9666L46.0471 30.9388L46.539 31.375C46.8082 31.6163 47.0588 31.8391 47.1052 31.8669C47.1423 31.904 47.1237 32.0711 47.068 32.2381C46.8267 32.9342 47.4578 33.8252 48.2003 33.8252C48.9428 33.8252 49.4904 33.2962 49.4904 32.563C49.4904 31.7555 48.7479 31.1801 47.9683 31.3936C47.5878 31.4957 47.5878 31.4957 47.1237 31.0502C46.8731 30.7996 46.5669 30.549 46.4555 30.4933C46.3348 30.4283 45.713 30.3912 44.9056 30.3912H43.5505V29.6951V28.9991H45.648H47.7456L48.5252 28.238L49.3048 27.477L49.8152 27.5048C50.3071 27.5234 50.3535 27.5048 50.6969 27.1614C51.0311 26.8366 51.0682 26.7438 51.0682 26.3447C51.0682 25.7785 50.8361 25.3702 50.3907 25.166C49.9916 24.9711 49.7688 24.9711 49.3605 25.1381C48.7479 25.398 48.4416 26.1126 48.6922 26.7159L48.8222 27.0315L48.2003 27.7183L47.5692 28.3958H46.4184H45.2675V27.7275C45.2675 27.1243 45.2954 27.0407 45.5274 26.7902C45.7594 26.5489 45.8337 26.5303 46.2327 26.5674C47.6806 26.7066 48.1818 24.8875 46.8731 24.21C46.5205 24.0337 46.1585 24.0522 45.7965 24.2657C45.2397 24.6091 44.9612 25.3609 45.2304 25.8528C45.3046 26.0013 45.2768 26.0941 45.0448 26.3632C44.7106 26.7345 44.6735 26.8737 44.6457 27.7461L44.6178 28.3958H44.1074H43.5969L43.5412 27.8853C43.5134 27.6069 43.4206 27.2449 43.3371 27.0872C43.1422 26.7066 42.6224 26.2611 42.214 26.1126L41.8799 25.992V25.1753V24.3585H42.7895C43.6526 24.3585 43.7269 24.34 44.0703 24.0894C44.2652 23.9409 44.6921 23.5511 45.0169 23.2262L45.6016 22.623L46.1028 22.6694C46.7618 22.7251 47.1887 22.4745 47.4022 21.9083C47.662 21.2308 47.3558 20.5347 46.6782 20.2841C46.3163 20.1449 46.0935 20.1542 45.713 20.3398C45.2025 20.5811 45.0169 20.9524 45.0633 21.6392L45.1097 22.2146L44.293 23.0035L43.4855 23.8017H42.6967H41.9078L41.8614 22.8364C41.8242 22.029 41.7778 21.7877 41.5644 21.3515C41.4252 21.073 41.156 20.7111 40.9704 20.5533C40.3207 20.015 39.3091 19.8572 38.4552 20.1542ZM39.8659 20.6554C40.3207 20.776 40.8404 21.2401 41.0539 21.7134C41.2024 22.0383 41.2303 22.3538 41.2303 24.043V26.0013L40.859 26.1126C40.3764 26.2519 39.9773 26.6045 40.0516 26.8087C40.1536 27.0593 40.3671 27.0779 40.6827 26.8644C41.3138 26.4096 42.1955 26.5581 42.6781 27.1985L42.9472 27.5419V29.7879V32.034L42.6781 32.3774C42.214 32.9992 41.518 33.1477 40.8033 32.795C40.3486 32.563 40.0887 32.6094 40.1351 32.9157C40.1536 33.0456 40.2929 33.2034 40.5063 33.3147L40.859 33.5004V35.5051C40.859 37.4727 40.859 37.5098 40.6177 37.9831C40.2279 38.7627 39.3648 39.1525 38.5295 38.9298C38.0004 38.7813 37.3879 38.178 37.2487 37.6583C37.1466 37.2963 37.1559 37.2314 37.3972 36.8787C37.5921 36.591 37.6199 36.461 37.5457 36.3497C37.3693 36.0712 37.1651 36.1176 36.9238 36.4981C36.4412 37.2592 35.7823 37.6026 34.9748 37.5005C33.3692 37.3149 32.7474 35.2081 33.991 34.1686C34.2602 33.9366 34.5572 33.8252 35.2254 33.686C35.4482 33.6396 35.4853 33.5932 35.4574 33.3797C35.4203 33.0363 35.1512 33.0178 34.353 33.2683C33.5734 33.5189 33.1929 33.4725 32.7195 33.0549C32.0791 32.498 32.042 32.3124 32.042 29.6394C32.042 27.3285 32.0513 27.2542 32.2555 26.8551C32.5153 26.3725 33.0629 25.9549 33.5455 25.8713C33.8425 25.8249 33.9446 25.8621 34.2138 26.1034C34.65 26.4839 35.1697 26.6509 35.3461 26.4746C35.541 26.2797 35.4203 26.0755 35.0119 25.8899C33.7683 25.333 33.5177 23.7088 34.52 22.7622C35.6431 21.6949 37.4157 22.3445 37.6849 23.913C37.7684 24.3771 38.0004 24.5627 38.2232 24.3492C38.4367 24.1265 38.251 23.2912 37.8427 22.6972C37.555 22.2796 37.5364 22.2146 37.6199 21.899C37.7499 21.4443 38.3067 20.8596 38.7708 20.6925C39.2255 20.5347 39.4112 20.5254 39.8659 20.6554ZM46.7061 21.0173C47.0866 21.3979 46.771 22.1311 46.2235 22.1311C45.9822 22.1311 45.5924 21.7227 45.5924 21.4721C45.5924 20.9431 46.3256 20.6368 46.7061 21.0173ZM46.8175 24.8875C47.0309 25.1474 47.0773 25.3609 46.9752 25.6022C46.8267 25.9177 46.4648 26.0662 46.1492 25.9363C45.4995 25.6672 45.6759 24.7298 46.3812 24.7298C46.5483 24.7298 46.7339 24.804 46.8175 24.8875ZM50.3257 25.8621C50.4278 25.9734 50.5113 26.159 50.5113 26.2797C50.5113 26.5489 50.1215 26.9572 49.8802 26.9572C49.5739 26.9572 49.212 26.6045 49.212 26.2983C49.212 25.7228 49.9359 25.4444 50.3257 25.8621ZM48.7479 32.1732C49.1192 32.5723 48.85 33.2034 48.3024 33.2034C47.727 33.2034 47.4486 32.6465 47.7827 32.1732C47.9776 31.8947 48.488 31.8947 48.7479 32.1732ZM49.0263 36.7951C49.1284 36.8972 49.212 37.0829 49.212 37.2128C49.212 37.5005 48.8314 37.9089 48.5623 37.9089C48.3024 37.9089 47.9126 37.5098 47.9126 37.2314C47.9126 36.7023 48.6458 36.4146 49.0263 36.7951ZM45.5459 37.7232C45.8986 38.1131 45.6295 38.837 45.1283 38.837C44.8406 38.837 44.4786 38.475 44.4786 38.178C44.4786 37.6212 45.184 37.3242 45.5459 37.7232Z"/>
</mask>
<path d="M38.4552 20.1542C37.954 20.3305 37.3693 20.8967 37.128 21.4535C36.9702 21.8062 36.9146 21.8619 36.7475 21.8062C36.6361 21.7691 36.2834 21.7227 35.9679 21.6949C34.2045 21.5464 32.998 23.022 33.3692 24.8783L33.4434 25.2495L33.0908 25.3609C32.5803 25.5094 31.9585 26.0755 31.7079 26.6231C31.4944 27.0872 31.4851 27.1614 31.4851 29.6673C31.4851 31.9876 31.5037 32.2753 31.6615 32.6465C31.8749 33.1384 32.404 33.6674 32.8773 33.8809L33.2207 34.0387L32.9794 34.4656C32.7752 34.8276 32.7381 35.0039 32.7381 35.635C32.7381 36.4425 32.8402 36.7209 33.3599 37.3149C34.0467 38.0945 35.2811 38.3636 36.237 37.9367L36.664 37.7418L36.7289 37.9738C36.7568 38.0945 36.8867 38.3636 37.0167 38.5585C37.8612 39.8301 39.9773 39.9136 40.8961 38.7163C41.3416 38.1316 41.4344 37.7511 41.4901 36.3961L41.5365 35.1246H42.4461H43.3649V35.8299C43.3649 36.5724 43.4299 36.7859 43.8104 37.1849C44.0146 37.4077 44.0331 37.4727 43.9403 37.6768C43.699 38.2059 43.9125 38.9019 44.4044 39.2082C44.8684 39.5052 45.6016 39.431 45.9822 39.0504C46.3441 38.6885 46.4462 38.0295 46.2049 37.584C45.9543 37.1293 45.3974 36.8508 44.8777 36.9344C44.525 36.99 44.4229 36.9622 44.2373 36.7859C44.0424 36.6002 44.0146 36.4981 44.0146 35.8485V35.1246H45.1561H46.307L46.901 35.7928L47.5042 36.4703L47.3836 36.8323C47.1237 37.584 47.6249 38.3544 48.4324 38.4472C49.0171 38.5121 49.4254 38.2894 49.676 37.7604C50.1308 36.823 49.3605 35.8206 48.3024 36.0063C47.9683 36.0619 47.9405 36.0434 47.365 35.3937C47.0309 35.0317 46.6318 34.6698 46.4648 34.6048C46.2327 34.5027 45.5924 34.4749 43.8289 34.4749H41.5087V34.0572C41.5087 33.6767 41.5272 33.6396 41.7686 33.5839C42.4739 33.4354 43.0586 33.027 43.3371 32.4887C43.4206 32.331 43.5134 31.9319 43.5412 31.5977L43.5969 30.9945L44.822 30.9666L46.0471 30.9388L46.539 31.375C46.8082 31.6163 47.0588 31.8391 47.1052 31.8669C47.1423 31.904 47.1237 32.0711 47.068 32.2381C46.8267 32.9342 47.4578 33.8252 48.2003 33.8252C48.9428 33.8252 49.4904 33.2962 49.4904 32.563C49.4904 31.7555 48.7479 31.1801 47.9683 31.3936C47.5878 31.4957 47.5878 31.4957 47.1237 31.0502C46.8731 30.7996 46.5669 30.549 46.4555 30.4933C46.3348 30.4283 45.713 30.3912 44.9056 30.3912H43.5505V29.6951V28.9991H45.648H47.7456L48.5252 28.238L49.3048 27.477L49.8152 27.5048C50.3071 27.5234 50.3535 27.5048 50.6969 27.1614C51.0311 26.8366 51.0682 26.7438 51.0682 26.3447C51.0682 25.7785 50.8361 25.3702 50.3907 25.166C49.9916 24.9711 49.7688 24.9711 49.3605 25.1381C48.7479 25.398 48.4416 26.1126 48.6922 26.7159L48.8222 27.0315L48.2003 27.7183L47.5692 28.3958H46.4184H45.2675V27.7275C45.2675 27.1243 45.2954 27.0407 45.5274 26.7902C45.7594 26.5489 45.8337 26.5303 46.2327 26.5674C47.6806 26.7066 48.1818 24.8875 46.8731 24.21C46.5205 24.0337 46.1585 24.0522 45.7965 24.2657C45.2397 24.6091 44.9612 25.3609 45.2304 25.8528C45.3046 26.0013 45.2768 26.0941 45.0448 26.3632C44.7106 26.7345 44.6735 26.8737 44.6457 27.7461L44.6178 28.3958H44.1074H43.5969L43.5412 27.8853C43.5134 27.6069 43.4206 27.2449 43.3371 27.0872C43.1422 26.7066 42.6224 26.2611 42.214 26.1126L41.8799 25.992V25.1753V24.3585H42.7895C43.6526 24.3585 43.7269 24.34 44.0703 24.0894C44.2652 23.9409 44.6921 23.5511 45.0169 23.2262L45.6016 22.623L46.1028 22.6694C46.7618 22.7251 47.1887 22.4745 47.4022 21.9083C47.662 21.2308 47.3558 20.5347 46.6782 20.2841C46.3163 20.1449 46.0935 20.1542 45.713 20.3398C45.2025 20.5811 45.0169 20.9524 45.0633 21.6392L45.1097 22.2146L44.293 23.0035L43.4855 23.8017H42.6967H41.9078L41.8614 22.8364C41.8242 22.029 41.7778 21.7877 41.5644 21.3515C41.4252 21.073 41.156 20.7111 40.9704 20.5533C40.3207 20.015 39.3091 19.8572 38.4552 20.1542ZM39.8659 20.6554C40.3207 20.776 40.8404 21.2401 41.0539 21.7134C41.2024 22.0383 41.2303 22.3538 41.2303 24.043V26.0013L40.859 26.1126C40.3764 26.2519 39.9773 26.6045 40.0516 26.8087C40.1536 27.0593 40.3671 27.0779 40.6827 26.8644C41.3138 26.4096 42.1955 26.5581 42.6781 27.1985L42.9472 27.5419V29.7879V32.034L42.6781 32.3774C42.214 32.9992 41.518 33.1477 40.8033 32.795C40.3486 32.563 40.0887 32.6094 40.1351 32.9157C40.1536 33.0456 40.2929 33.2034 40.5063 33.3147L40.859 33.5004V35.5051C40.859 37.4727 40.859 37.5098 40.6177 37.9831C40.2279 38.7627 39.3648 39.1525 38.5295 38.9298C38.0004 38.7813 37.3879 38.178 37.2487 37.6583C37.1466 37.2963 37.1559 37.2314 37.3972 36.8787C37.5921 36.591 37.6199 36.461 37.5457 36.3497C37.3693 36.0712 37.1651 36.1176 36.9238 36.4981C36.4412 37.2592 35.7823 37.6026 34.9748 37.5005C33.3692 37.3149 32.7474 35.2081 33.991 34.1686C34.2602 33.9366 34.5572 33.8252 35.2254 33.686C35.4482 33.6396 35.4853 33.5932 35.4574 33.3797C35.4203 33.0363 35.1512 33.0178 34.353 33.2683C33.5734 33.5189 33.1929 33.4725 32.7195 33.0549C32.0791 32.498 32.042 32.3124 32.042 29.6394C32.042 27.3285 32.0513 27.2542 32.2555 26.8551C32.5153 26.3725 33.0629 25.9549 33.5455 25.8713C33.8425 25.8249 33.9446 25.8621 34.2138 26.1034C34.65 26.4839 35.1697 26.6509 35.3461 26.4746C35.541 26.2797 35.4203 26.0755 35.0119 25.8899C33.7683 25.333 33.5177 23.7088 34.52 22.7622C35.6431 21.6949 37.4157 22.3445 37.6849 23.913C37.7684 24.3771 38.0004 24.5627 38.2232 24.3492C38.4367 24.1265 38.251 23.2912 37.8427 22.6972C37.555 22.2796 37.5364 22.2146 37.6199 21.899C37.7499 21.4443 38.3067 20.8596 38.7708 20.6925C39.2255 20.5347 39.4112 20.5254 39.8659 20.6554ZM46.7061 21.0173C47.0866 21.3979 46.771 22.1311 46.2235 22.1311C45.9822 22.1311 45.5924 21.7227 45.5924 21.4721C45.5924 20.9431 46.3256 20.6368 46.7061 21.0173ZM46.8175 24.8875C47.0309 25.1474 47.0773 25.3609 46.9752 25.6022C46.8267 25.9177 46.4648 26.0662 46.1492 25.9363C45.4995 25.6672 45.6759 24.7298 46.3812 24.7298C46.5483 24.7298 46.7339 24.804 46.8175 24.8875ZM50.3257 25.8621C50.4278 25.9734 50.5113 26.159 50.5113 26.2797C50.5113 26.5489 50.1215 26.9572 49.8802 26.9572C49.5739 26.9572 49.212 26.6045 49.212 26.2983C49.212 25.7228 49.9359 25.4444 50.3257 25.8621ZM48.7479 32.1732C49.1192 32.5723 48.85 33.2034 48.3024 33.2034C47.727 33.2034 47.4486 32.6465 47.7827 32.1732C47.9776 31.8947 48.488 31.8947 48.7479 32.1732ZM49.0263 36.7951C49.1284 36.8972 49.212 37.0829 49.212 37.2128C49.212 37.5005 48.8314 37.9089 48.5623 37.9089C48.3024 37.9089 47.9126 37.5098 47.9126 37.2314C47.9126 36.7023 48.6458 36.4146 49.0263 36.7951ZM45.5459 37.7232C45.8986 38.1131 45.6295 38.837 45.1283 38.837C44.8406 38.837 44.4786 38.475 44.4786 38.178C44.4786 37.6212 45.184 37.3242 45.5459 37.7232Z" fill="#425F8B" stroke="url(#paint0_linear_1200_36598)" stroke-width="2" mask="url(#path-2-inside-1_1200_36598)"/>
<path d="M35.1047 27.7184C34.4086 28.0804 34.3251 28.331 34.288 30.0758C34.2601 31.3752 34.2694 31.5794 34.4086 31.6907C34.52 31.7835 34.6035 31.7928 34.7149 31.7186C34.8356 31.6443 34.882 31.4587 34.9005 30.9111L34.9284 30.2058H35.7544H36.5804L36.6082 30.9668C36.6361 31.7186 36.6454 31.7371 36.8681 31.7371H37.1001L37.128 30.1501C37.1465 28.6373 37.1373 28.5537 36.9424 28.2567C36.4597 27.5607 35.7915 27.3657 35.1047 27.7184ZM36.1349 28.2567C36.3762 28.3959 36.5897 28.8322 36.5897 29.2312V29.5561H35.7544H34.9191V29.1756C34.9191 28.3774 35.5131 27.9226 36.1349 28.2567Z" fill="#F9F9F9"/>
<path d="M37.8519 27.7279C37.6013 27.9136 37.7034 28.2013 38.0282 28.257L38.3067 28.3034V29.7419V31.1805L38.0282 31.2269C37.8055 31.264 37.7498 31.3197 37.7498 31.5053C37.7498 31.7281 37.7684 31.7374 38.548 31.7652C39.1698 31.7838 39.374 31.7559 39.4668 31.6446C39.6339 31.4496 39.5225 31.2455 39.2162 31.2083L38.9564 31.1805L38.9285 29.7234L38.9007 28.2662L39.1513 28.2384C39.5039 28.2013 39.6617 27.9136 39.4297 27.7372C39.1977 27.5702 38.0839 27.5609 37.8519 27.7279Z" fill="#F9F9F9"/>
<circle cx="41.2767" cy="29.6777" r="15.0972" stroke="url(#paint1_linear_1200_36598)"/>
</g>
<path d="M63.2766 17.6782H117.83C120.078 17.6782 121.901 19.5009 121.901 21.7494V41.6782H67.3478C65.0993 41.6782 63.2766 39.8555 63.2766 37.6071V17.6782Z" fill="#56D500"/>
<path d="M78.4703 36.6782H77.4321L77.0047 35.1515C76.3126 36.3322 75.2812 36.9225 73.9106 36.9225C72.6621 36.9225 71.685 36.6714 70.9794 36.1693C70.2873 35.6537 69.8055 34.9276 69.5341 33.9913C69.2627 33.0549 69.127 31.8743 69.127 30.4494C69.127 28.9973 69.2695 27.8031 69.5545 26.8668C69.853 25.9168 70.3619 25.1976 71.0812 24.7091C71.814 24.2069 72.825 23.9559 74.1142 23.9559C75.4848 23.9559 76.4686 24.2409 77.0657 24.8108C77.6628 25.3672 78.0293 26.195 78.165 27.2942L76.4958 27.5996C76.3329 25.7404 75.5391 24.8108 74.1142 24.8108C73.3406 24.8108 72.7435 25.0144 72.3229 25.4215C71.9022 25.8286 71.6104 26.4325 71.4476 27.2332C71.2847 28.0338 71.2033 29.1059 71.2033 30.4494C71.2033 31.7521 71.2779 32.8038 71.4272 33.6045C71.5765 34.4052 71.8411 35.0158 72.2211 35.4365C72.6146 35.8436 73.1778 36.0472 73.9106 36.0472C75.6883 36.0472 76.6111 34.8259 76.679 32.3832V31.345H74.3991V30.3272H78.4703V36.6782ZM82.562 31.915V31.9557C82.562 33.3942 82.7316 34.412 83.0708 35.0091C83.4237 35.6062 84.0208 35.9047 84.8621 35.9047C86.2463 35.9047 86.9724 35.1923 87.0402 33.7674L88.7297 33.8488C88.6347 34.7987 88.2887 35.5519 87.6916 36.1083C87.0945 36.6511 86.131 36.9225 84.8011 36.9225C83.2676 36.9225 82.1684 36.5018 81.5035 35.6604C80.8385 34.8055 80.506 33.5163 80.506 31.7928C80.506 30.2458 80.8181 29.0041 81.4424 28.0677C82.0802 27.1314 83.193 26.6632 84.7807 26.6632C86.3142 26.6632 87.3795 27.1314 87.9766 28.0677C88.5737 28.9905 88.8722 30.2051 88.8722 31.7114V31.915H82.562ZM84.74 27.681C84.0208 27.681 83.4983 27.9456 83.1726 28.4749C82.8469 29.0041 82.6502 29.8116 82.5823 30.8972H86.8774C86.8367 29.8387 86.6535 29.038 86.3278 28.4952C86.0156 27.9524 85.4864 27.681 84.74 27.681ZM96.0976 26.6632C98.1874 26.6632 99.2323 27.7013 99.2323 29.7776V36.6782H97.1764V29.9405C97.1764 29.2077 97.0475 28.6716 96.7897 28.3324C96.5318 27.9795 96.1247 27.8031 95.5683 27.8031C94.7405 27.8031 93.9263 28.1152 93.1256 28.7395V36.6782H91.0697V26.9075H91.9653L92.7796 27.9253C93.2681 27.5453 93.8041 27.2399 94.3877 27.0092C94.9848 26.7786 95.5547 26.6632 96.0976 26.6632ZM107.898 32.9531H102.931L101.75 36.6782H100.569L104.6 24.2002H107.083L111.114 36.6782H109.099L107.898 32.9531ZM107.572 31.9557L105.414 25.1772L103.256 31.9557H107.572ZM114.656 36.6782H112.58V24.2002H114.656V36.6782Z" fill="white"/>
<path d="M132.716 23.9292C134.144 23.9292 135.246 24.2712 136.021 24.9551C136.797 25.6239 137.275 26.6574 137.458 28.0557L135.565 28.3065C135.489 27.2122 135.201 26.3686 134.699 25.7759C134.213 25.1831 133.552 24.8867 132.716 24.8867C131.819 24.8867 131.127 25.1071 130.641 25.5479C130.17 25.9735 129.934 26.5814 129.934 27.3718C129.934 28.1013 130.124 28.6561 130.504 29.0361C130.899 29.4008 131.598 29.7124 132.602 29.9708L133.856 30.29C135.208 30.6699 136.166 31.1715 136.728 31.7947C137.29 32.4178 137.572 33.2842 137.572 34.3937C137.572 35.7008 137.146 36.7039 136.295 37.4031C135.444 38.1022 134.228 38.4518 132.647 38.4518C131.142 38.4518 129.987 38.1174 129.182 37.4487C128.391 36.7647 127.913 35.7236 127.746 34.3253L129.592 34.0517C129.714 35.146 130.033 35.9896 130.55 36.5823C131.067 37.1751 131.766 37.4715 132.647 37.4715C134.623 37.4715 135.611 36.6355 135.611 34.9636C135.611 34.4621 135.527 34.0593 135.36 33.7553C135.193 33.4513 134.912 33.2006 134.517 33.003C134.137 32.7902 133.574 32.5926 132.83 32.4102L131.667 32.1138C130.314 31.7643 129.364 31.2779 128.817 30.6547C128.285 30.0164 128.019 29.1197 128.019 27.9645C128.019 26.6422 128.414 25.6391 129.205 24.9551C130.01 24.2712 131.18 23.9292 132.716 23.9292ZM144.04 38.4518C142.201 38.4518 140.917 37.9274 140.187 36.8787C139.473 35.8148 139.116 34.4241 139.116 32.7066C139.116 30.9739 139.473 29.5832 140.187 28.5345C140.917 27.4858 142.201 26.9614 144.04 26.9614C145.864 26.9614 147.141 27.4934 147.87 28.5573C148.6 29.606 148.964 30.9891 148.964 32.7066C148.964 36.5367 147.323 38.4518 144.04 38.4518ZM144.04 37.3119C145.043 37.3119 145.727 36.9091 146.092 36.1036C146.472 35.298 146.662 34.1657 146.662 32.7066C146.662 31.2323 146.479 30.1 146.115 29.3096C145.75 28.5041 145.058 28.1013 144.04 28.1013C143.022 28.1013 142.33 28.4965 141.965 29.2868C141.601 30.0772 141.418 31.2171 141.418 32.7066C141.418 34.1809 141.601 35.3208 141.965 36.1264C142.33 36.9167 143.022 37.3119 144.04 37.3119ZM153.739 38.1782H151.437V23.724L153.739 23.4276V38.1782ZM165.997 27.235V38.1782H164.492L163.854 36.8103C162.835 37.9046 161.642 38.4518 160.274 38.4518C159.089 38.4518 158.215 38.1478 157.653 37.5399C157.09 36.9167 156.809 36.0428 156.809 34.918V27.235H159.112V34.6901C159.112 36.3923 159.78 37.2435 161.118 37.2435C162.106 37.2435 162.965 36.7647 163.694 35.8072V27.235H165.997ZM174.402 37.7906C173.596 38.2314 172.821 38.4518 172.076 38.4518C171.316 38.4518 170.746 38.315 170.366 38.0414C170.002 37.7527 169.774 37.4107 169.683 37.0155C169.591 36.6203 169.546 36.134 169.546 35.5564V28.3977H167.767V27.235H169.546V25.4567L171.871 24.5904V27.235H174.197V28.3977H171.871V35.83C171.871 36.3316 171.932 36.6811 172.054 36.8787C172.19 37.0611 172.411 37.1523 172.715 37.1523C173.14 37.1523 173.604 37.0155 174.105 36.7419L174.402 37.7906ZM176.881 25.7987C176.486 25.7987 176.151 25.6619 175.878 25.3883C175.604 25.0995 175.467 24.7652 175.467 24.3852C175.467 23.99 175.604 23.6556 175.878 23.382C176.151 23.0933 176.486 22.9489 176.881 22.9489C177.276 22.9489 177.61 23.0933 177.884 23.382C178.173 23.6556 178.317 23.99 178.317 24.3852C178.317 24.7652 178.173 25.0995 177.884 25.3883C177.595 25.6619 177.261 25.7987 176.881 25.7987ZM177.975 38.1782H175.718V27.235H177.975V38.1782ZM185.4 38.4518C183.561 38.4518 182.277 37.9274 181.547 36.8787C180.833 35.8148 180.476 34.4241 180.476 32.7066C180.476 30.9739 180.833 29.5832 181.547 28.5345C182.277 27.4858 183.561 26.9614 185.4 26.9614C187.224 26.9614 188.501 27.4934 189.231 28.5573C189.96 29.606 190.325 30.9891 190.325 32.7066C190.325 36.5367 188.683 38.4518 185.4 38.4518ZM185.4 37.3119C186.404 37.3119 187.088 36.9091 187.452 36.1036C187.832 35.298 188.022 34.1657 188.022 32.7066C188.022 31.2323 187.84 30.1 187.475 29.3096C187.11 28.5041 186.419 28.1013 185.4 28.1013C184.382 28.1013 183.691 28.4965 183.326 29.2868C182.961 30.0772 182.779 31.2171 182.779 32.7066C182.779 34.1809 182.961 35.3208 183.326 36.1264C183.691 36.9167 184.382 37.3119 185.4 37.3119ZM198.428 26.9614C200.769 26.9614 201.939 28.1241 201.939 30.4496V38.1782H199.637V30.6319C199.637 29.8112 199.492 29.2108 199.203 28.8309C198.915 28.4357 198.459 28.2381 197.836 28.2381C196.908 28.2381 195.996 28.5877 195.1 29.2868V38.1782H192.797V27.235H193.8L194.712 28.3749C195.259 27.9493 195.86 27.6074 196.513 27.349C197.182 27.0906 197.82 26.9614 198.428 26.9614Z" fill="#89D329"/>
<defs>
<linearGradient id="paint0_linear_1200_36598" x1="41.2767" y1="39.5654" x2="41.2767" y2="20.006" gradientUnits="userSpaceOnUse">
<stop stop-color="#56D500"/>
<stop offset="1" stop-color="#01BEFF"/>
</linearGradient>
<linearGradient id="paint1_linear_1200_36598" x1="41.2767" y1="15.0806" x2="41.2767" y2="44.2749" gradientUnits="userSpaceOnUse">
<stop stop-color="#56D500"/>
<stop offset="1" stop-color="#01BEFF"/>
</linearGradient>
<clipPath id="clip0_1200_36598">
<rect width="34" height="31.3569" fill="white" transform="translate(24.2766 14)"/>
</clipPath>
</defs>
</svg>
